<svg width="271" height="225" viewBox="0 0 271 225" fill="none" xmlns="http://www.w3.org/2000/svg">
<path d="M269 1H2L28 41H244L269 1Z" stroke="#8CF5D5" stroke-width="2"/>
<path d="M41.9316 12.4688V13.4121H43.9297V20.0625H41.9316V21H47.0879V20.0625H45.043V13.4121H47.0879V12.4688H41.9316ZM54.4824 21V12.4688H53.3867L53.3691 18.832L50.0586 12.4688H48.957V21H50.0527L50.0703 14.625L53.3809 21H54.4824ZM60.8105 18.8438C60.8105 19.0781 60.7598 19.2812 60.6582 19.4531C60.5566 19.6211 60.4258 19.7598 60.2656 19.8691C60.1055 19.9824 59.9219 20.0664 59.7148 20.1211C59.5117 20.1719 59.3047 20.1973 59.0938 20.1973C58.8281 20.1973 58.582 20.1621 58.3555 20.0918C58.1328 20.0176 57.9355 19.9082 57.7637 19.7637C57.5918 19.623 57.4512 19.4512 57.3418 19.248C57.2324 19.041 57.1602 18.8047 57.125 18.5391H56.0176C56.0293 18.9062 56.1094 19.2402 56.2578 19.541C56.4102 19.8379 56.6152 20.0977 56.873 20.3203C57.1621 20.5781 57.502 20.7754 57.8926 20.9121C58.2871 21.0488 58.6875 21.1172 59.0938 21.1172C59.4336 21.1172 59.7734 21.0703 60.1133 20.9766C60.4531 20.8789 60.7578 20.7344 61.0273 20.543C61.2969 20.3555 61.5156 20.1191 61.6836 19.834C61.8555 19.5488 61.9414 19.2148 61.9414 18.832C61.9414 18.4531 61.8613 18.1191 61.7012 17.8301C61.5449 17.541 61.3379 17.2969 61.0801 17.0977C60.8184 16.8828 60.5293 16.707 60.2129 16.5703C59.8965 16.4297 59.5801 16.3105 59.2637 16.2129C59.0723 16.1543 58.8672 16.0859 58.6484 16.0078C58.4336 15.9297 58.2344 15.832 58.0508 15.7148C57.8633 15.5977 57.709 15.4551 57.5879 15.2871C57.4668 15.1152 57.4043 14.9062 57.4004 14.6602C57.4004 14.4336 57.4453 14.2344 57.5352 14.0625C57.6289 13.8906 57.7539 13.7461 57.9102 13.6289C58.0625 13.5117 58.2363 13.4238 58.4316 13.3652C58.6309 13.3066 58.834 13.2773 59.041 13.2773C59.2988 13.2773 59.5293 13.3184 59.7324 13.4004C59.9395 13.4785 60.1172 13.5898 60.2656 13.7344C60.4141 13.8789 60.5332 14.0527 60.623 14.2559C60.7129 14.4551 60.7734 14.6777 60.8047 14.9238H61.918C61.9102 14.5332 61.8262 14.1797 61.666 13.8633C61.5059 13.5469 61.293 13.2773 61.0273 13.0547C60.7617 12.832 60.457 12.6602 60.1133 12.5391C59.7695 12.4141 59.4121 12.3516 59.041 12.3516C58.7051 12.3516 58.3711 12.4043 58.0391 12.5098C57.707 12.6113 57.4102 12.7617 57.1484 12.9609C56.8867 13.1602 56.6738 13.4043 56.5098 13.6934C56.3496 13.9824 56.2695 14.3105 56.2695 14.6777C56.2695 15.0449 56.3496 15.3652 56.5098 15.6387C56.6738 15.9082 56.8848 16.1426 57.1426 16.3418C57.3965 16.5371 57.6777 16.7051 57.9863 16.8457C58.2988 16.9824 58.6055 17.0996 58.9062 17.1973C59.1133 17.2637 59.3281 17.3379 59.5508 17.4199C59.7773 17.502 59.9844 17.6035 60.1719 17.7246C60.3594 17.8496 60.5117 18.002 60.6289 18.1816C60.75 18.3613 60.8105 18.582 60.8105 18.8438ZM69.3066 13.3945V12.4688H62.9785V13.3945H65.6152V21H66.6699V13.3945H69.3066ZM70.7598 12.4688V13.4121H72.7578V20.0625H70.7598V21H75.916V20.0625H73.8711V13.4121H75.916V12.4688H70.7598ZM83.7207 13.3945V12.4688H77.3926V13.3945H80.0293V21H81.084V13.3945H83.7207ZM90.5293 12.4688H89.4805L89.4629 18.2461C89.4551 18.5 89.4141 18.7441 89.3398 18.9785C89.2656 19.2129 89.1582 19.4199 89.0176 19.5996C88.873 19.7832 88.6953 19.9297 88.4844 20.0391C88.2734 20.1445 88.0293 20.1973 87.752 20.1973C87.4746 20.1973 87.2285 20.1426 87.0137 20.0332C86.8027 19.9238 86.627 19.7793 86.4863 19.5996C86.3418 19.4199 86.2305 19.2129 86.1523 18.9785C86.0781 18.7441 86.0391 18.5 86.0352 18.2461L86.0117 12.4688H84.9805L84.9688 18.2461C84.9727 18.6445 85.043 19.0195 85.1797 19.3711C85.3164 19.7188 85.5059 20.0215 85.748 20.2793C85.9902 20.541 86.2812 20.7461 86.6211 20.8945C86.9609 21.043 87.3379 21.1172 87.752 21.1172C88.1582 21.1172 88.5312 21.043 88.8711 20.8945C89.2109 20.7422 89.5039 20.5352 89.75 20.2734C89.9961 20.0156 90.1895 19.7129 90.3301 19.3652C90.4707 19.0176 90.541 18.6445 90.541 18.2461L90.5293 12.4688ZM97.9062 18.4336H96.8223C96.7871 18.6914 96.7266 18.9316 96.6406 19.1543C96.5547 19.373 96.4395 19.5625 96.2949 19.7227C96.1504 19.8867 95.9727 20.0137 95.7617 20.1035C95.5547 20.1934 95.3086 20.2383 95.0234 20.2383C94.7617 20.2383 94.5332 20.1973 94.3379 20.1152C94.1426 20.0293 93.9727 19.9121 93.8281 19.7637C93.6836 19.6191 93.5645 19.4512 93.4707 19.2598C93.377 19.0684 93.3008 18.8633 93.2422 18.6445C93.1836 18.4297 93.1406 18.2109 93.1133 17.9883C93.0898 17.7617 93.0781 17.543 93.0781 17.332V16.1309C93.0781 15.9199 93.0898 15.7031 93.1133 15.4805C93.1406 15.2539 93.1836 15.0332 93.2422 14.8184C93.3008 14.6035 93.377 14.4004 93.4707 14.209C93.5684 14.0176 93.6895 13.8496 93.834 13.7051C93.9746 13.5605 94.1426 13.4473 94.3379 13.3652C94.5371 13.2793 94.7656 13.2363 95.0234 13.2363C95.3086 13.2363 95.5547 13.2852 95.7617 13.3828C95.9727 13.4766 96.1504 13.6074 96.2949 13.7754C96.4395 13.9434 96.5547 14.1387 96.6406 14.3613C96.7266 14.584 96.7871 14.8242 96.8223 15.082H97.9062C97.8594 14.6758 97.7617 14.3047 97.6133 13.9688C97.4688 13.6328 97.2754 13.3438 97.0332 13.1016C96.791 12.8633 96.502 12.6797 96.166 12.5508C95.8301 12.418 95.4492 12.3516 95.0234 12.3516C94.668 12.3516 94.3477 12.4023 94.0625 12.5039C93.7773 12.6016 93.5234 12.7383 93.3008 12.9141C93.0742 13.0898 92.8789 13.2988 92.7148 13.541C92.5547 13.7793 92.4219 14.0391 92.3164 14.3203C92.207 14.6016 92.125 14.8965 92.0703 15.2051C92.0195 15.5137 91.9922 15.8262 91.9883 16.1426V17.332C91.9922 17.6484 92.0195 17.9609 92.0703 18.2695C92.125 18.5781 92.207 18.873 92.3164 19.1543C92.4219 19.4355 92.5547 19.6953 92.7148 19.9336C92.8789 20.1719 93.0742 20.3789 93.3008 20.5547C93.5234 20.7305 93.7773 20.8691 94.0625 20.9707C94.3516 21.0684 94.6719 21.1172 95.0234 21.1172C95.4336 21.1172 95.8047 21.0527 96.1367 20.9238C96.4727 20.791 96.7637 20.6055 97.0098 20.3672C97.252 20.1328 97.4492 19.8516 97.6016 19.5234C97.7539 19.1914 97.8555 18.8281 97.9062 18.4336ZM99.5879 12.4688V13.4121H101.586V20.0625H99.5879V21H104.744V20.0625H102.699V13.4121H104.744V12.4688H99.5879ZM112.344 17.2266V16.2539C112.34 15.9492 112.312 15.6406 112.262 15.3281C112.215 15.0156 112.141 14.7148 112.039 14.4258C111.934 14.1367 111.801 13.8672 111.641 13.6172C111.484 13.3633 111.297 13.1426 111.078 12.9551C110.859 12.7676 110.607 12.6211 110.322 12.5156C110.037 12.4062 109.719 12.3516 109.367 12.3516C109.016 12.3516 108.697 12.4062 108.412 12.5156C108.131 12.6211 107.881 12.7676 107.662 12.9551C107.443 13.1465 107.254 13.3691 107.094 13.623C106.938 13.873 106.809 14.1426 106.707 14.4316C106.602 14.7207 106.523 15.0215 106.473 15.334C106.426 15.6426 106.4 15.9492 106.396 16.2539V17.2266C106.4 17.5312 106.428 17.8379 106.479 18.1465C106.529 18.4551 106.607 18.7539 106.713 19.043C106.814 19.332 106.945 19.6035 107.105 19.8574C107.266 20.1074 107.455 20.3262 107.674 20.5137C107.893 20.7012 108.143 20.8496 108.424 20.959C108.709 21.0645 109.027 21.1172 109.379 21.1172C109.73 21.1172 110.047 21.0645 110.328 20.959C110.613 20.8496 110.865 20.7012 111.084 20.5137C111.303 20.3262 111.49 20.1074 111.646 19.8574C111.807 19.6074 111.938 19.3379 112.039 19.0488C112.141 18.7598 112.215 18.4609 112.262 18.1523C112.312 17.8398 112.34 17.5312 112.344 17.2266ZM111.271 16.2422V17.2266C111.268 17.4297 111.254 17.6426 111.23 17.8652C111.211 18.0879 111.174 18.3066 111.119 18.5215C111.061 18.7402 110.984 18.9492 110.891 19.1484C110.801 19.3438 110.688 19.5156 110.551 19.6641C110.41 19.8164 110.242 19.9375 110.047 20.0273C109.855 20.1172 109.633 20.1621 109.379 20.1621C109.125 20.1621 108.902 20.1172 108.711 20.0273C108.52 19.9375 108.354 19.8164 108.213 19.6641C108.072 19.5156 107.955 19.3418 107.861 19.1426C107.768 18.9434 107.691 18.7344 107.633 18.5156C107.574 18.3008 107.531 18.082 107.504 17.8594C107.48 17.6367 107.467 17.4258 107.463 17.2266V16.2422C107.467 16.043 107.48 15.834 107.504 15.6152C107.531 15.3926 107.574 15.1719 107.633 14.9531C107.688 14.7383 107.762 14.5332 107.855 14.3379C107.949 14.1387 108.066 13.9629 108.207 13.8105C108.348 13.6621 108.514 13.543 108.705 13.4531C108.896 13.3633 109.117 13.3184 109.367 13.3184C109.621 13.3184 109.844 13.3633 110.035 13.4531C110.227 13.5391 110.393 13.6562 110.533 13.8047C110.674 13.957 110.791 14.1328 110.885 14.332C110.979 14.5273 111.055 14.7324 111.113 14.9473C111.168 15.166 111.207 15.3867 111.23 15.6094C111.254 15.8281 111.268 16.0391 111.271 16.2422ZM119.346 21V12.4688H118.25L118.232 18.832L114.922 12.4688H113.82V21H114.916L114.934 14.625L118.244 21H119.346ZM125.281 18.791L125.955 21H127.033L124.326 12.4688H123.418L120.664 21H121.748L122.434 18.791H125.281ZM122.727 17.8477L123.869 14.1445L124.994 17.8477H122.727ZM129.641 20.0801V12.4688H128.557V21H133.812V20.0801H129.641ZM145.953 23.4023V12.4688H144.934V23.4023H145.953ZM162.242 17.2617V15.9609H158.738V13.8105H162.816V12.4688H157.086V21H162.834V19.6699H158.738V17.2617H162.242ZM168.629 18.7734C168.629 18.9258 168.598 19.0664 168.535 19.1953C168.473 19.3203 168.383 19.4277 168.266 19.5176C168.148 19.6074 168.004 19.6777 167.832 19.7285C167.664 19.7793 167.471 19.8047 167.252 19.8047C167.006 19.8047 166.779 19.7773 166.572 19.7227C166.369 19.668 166.195 19.582 166.051 19.4648C165.902 19.3477 165.787 19.1973 165.705 19.0137C165.623 18.8301 165.578 18.6094 165.57 18.3516H163.953C163.953 18.793 164.037 19.1777 164.205 19.5059C164.377 19.834 164.609 20.1191 164.902 20.3613C165.211 20.6074 165.572 20.7949 165.986 20.9238C166.404 21.0488 166.826 21.1113 167.252 21.1113C167.686 21.1113 168.086 21.0605 168.453 20.959C168.82 20.8535 169.137 20.6992 169.402 20.4961C169.668 20.2969 169.875 20.0527 170.023 19.7637C170.176 19.4707 170.252 19.1367 170.252 18.7617C170.252 18.3281 170.152 17.9453 169.953 17.6133C169.754 17.2812 169.486 16.9902 169.15 16.7402C168.928 16.5879 168.684 16.4531 168.418 16.3359C168.152 16.2188 167.873 16.1191 167.58 16.0371C167.307 15.9629 167.061 15.8828 166.842 15.7969C166.627 15.7109 166.443 15.6152 166.291 15.5098C166.139 15.4082 166.021 15.293 165.939 15.1641C165.861 15.0352 165.822 14.8906 165.822 14.7305C165.822 14.5781 165.852 14.4375 165.91 14.3086C165.973 14.1758 166.062 14.0605 166.18 13.9629C166.297 13.8691 166.439 13.7969 166.607 13.7461C166.779 13.6914 166.975 13.6641 167.193 13.6641C167.432 13.6641 167.639 13.6973 167.814 13.7637C167.994 13.8262 168.145 13.9141 168.266 14.0273C168.383 14.1445 168.471 14.2832 168.529 14.4434C168.592 14.6035 168.627 14.7793 168.635 14.9707H170.24C170.24 14.5879 170.166 14.2363 170.018 13.916C169.869 13.5957 169.662 13.3184 169.396 13.084C169.131 12.8535 168.812 12.6738 168.441 12.5449C168.074 12.416 167.668 12.3516 167.223 12.3516C166.793 12.3516 166.395 12.4082 166.027 12.5215C165.66 12.6309 165.342 12.7891 165.072 12.9961C164.803 13.2031 164.592 13.4531 164.439 13.7461C164.287 14.0391 164.211 14.3652 164.211 14.7246C164.211 15.0371 164.268 15.3262 164.381 15.5918C164.498 15.8574 164.67 16.0996 164.896 16.3184C165.123 16.5371 165.414 16.7383 165.77 16.9219C166.129 17.1055 166.545 17.2617 167.018 17.3906C167.322 17.4727 167.576 17.5625 167.779 17.6602C167.986 17.7539 168.154 17.8574 168.283 17.9707C168.408 18.0879 168.496 18.2129 168.547 18.3457C168.602 18.4785 168.629 18.6211 168.629 18.7734ZM177.676 13.8105V12.4688H170.797V13.8105H173.393V21H175.045V13.8105H177.676ZM178.977 12.4688V13.7988H180.6V19.6758H178.977V21H183.91V19.6758H182.246V13.7988H183.91V12.4688H178.977ZM187.584 19.6699V12.4688H185.932V21H191.58V19.6699H187.584ZM198.98 17.3613V16.1191C198.98 15.7324 198.943 15.3672 198.869 15.0234C198.799 14.6797 198.695 14.3633 198.559 14.0742C198.434 13.8203 198.283 13.5879 198.107 13.377C197.936 13.166 197.734 12.9863 197.504 12.8379C197.273 12.6816 197.014 12.5625 196.725 12.4805C196.439 12.3945 196.133 12.3516 195.805 12.3516C195.48 12.3516 195.18 12.3926 194.902 12.4746C194.625 12.5566 194.375 12.6738 194.152 12.8262C193.926 12.9824 193.725 13.1699 193.549 13.3887C193.377 13.6074 193.23 13.8516 193.109 14.1211C192.984 14.4062 192.889 14.7168 192.822 15.0527C192.76 15.3887 192.729 15.7441 192.729 16.1191V17.3613C192.729 17.7129 192.756 18.0469 192.811 18.3633C192.869 18.6797 192.953 18.9727 193.062 19.2422C193.184 19.5352 193.334 19.7988 193.514 20.0332C193.693 20.2637 193.896 20.4609 194.123 20.625C194.354 20.7812 194.609 20.9023 194.891 20.9883C195.172 21.0742 195.479 21.1172 195.811 21.1172C196.123 21.1172 196.414 21.0781 196.684 21C196.957 20.9258 197.207 20.8203 197.434 20.6836C197.684 20.5273 197.906 20.332 198.102 20.0977C198.297 19.8633 198.461 19.6055 198.594 19.3242C198.719 19.043 198.814 18.7383 198.881 18.4102C198.947 18.0781 198.98 17.7285 198.98 17.3613ZM197.311 16.1074V17.3613C197.311 17.5723 197.299 17.7754 197.275 17.9707C197.256 18.166 197.225 18.3457 197.182 18.5098C197.127 18.7207 197.053 18.9102 196.959 19.0781C196.869 19.2422 196.758 19.3789 196.625 19.4883C196.52 19.5781 196.398 19.6465 196.262 19.6934C196.125 19.7402 195.975 19.7637 195.811 19.7637C195.639 19.7637 195.484 19.7383 195.348 19.6875C195.215 19.6367 195.096 19.5645 194.99 19.4707C194.877 19.3652 194.777 19.2285 194.691 19.0605C194.609 18.8887 194.547 18.6992 194.504 18.4922C194.465 18.3281 194.438 18.1504 194.422 17.959C194.406 17.7676 194.398 17.5684 194.398 17.3613V16.1074C194.398 15.8887 194.406 15.6797 194.422 15.4805C194.441 15.2812 194.471 15.0977 194.51 14.9297C194.561 14.7109 194.631 14.5195 194.721 14.3555C194.814 14.1914 194.928 14.0547 195.061 13.9453C195.158 13.8711 195.268 13.8145 195.389 13.7754C195.514 13.7363 195.652 13.7168 195.805 13.7168C195.965 13.7168 196.109 13.7383 196.238 13.7812C196.371 13.8242 196.49 13.8848 196.596 13.9629C196.729 14.0684 196.844 14.2051 196.941 14.373C197.039 14.5371 197.117 14.7246 197.176 14.9355C197.223 15.1035 197.256 15.2871 197.275 15.4863C197.299 15.6816 197.311 15.8887 197.311 16.1074ZM207.406 21H209.697C210.076 21 210.432 20.9531 210.764 20.8594C211.1 20.7656 211.406 20.6309 211.684 20.4551C211.922 20.3066 212.141 20.123 212.34 19.9043C212.539 19.6816 212.713 19.4395 212.861 19.1777C213.018 18.8848 213.139 18.5625 213.225 18.2109C213.311 17.8594 213.354 17.4863 213.354 17.0918V16.3887C213.354 15.9785 213.307 15.5918 213.213 15.2285C213.123 14.8652 212.994 14.5332 212.826 14.2324C212.682 13.9863 212.512 13.7598 212.316 13.5527C212.125 13.3418 211.906 13.1641 211.66 13.0195C211.379 12.8438 211.066 12.709 210.723 12.6152C210.379 12.5176 210.01 12.4688 209.615 12.4688H207.406V21ZM209.064 13.8047H209.615C209.814 13.8047 209.998 13.8281 210.166 13.875C210.338 13.918 210.494 13.9805 210.635 14.0625C210.818 14.1719 210.979 14.3125 211.115 14.4844C211.256 14.6562 211.369 14.8516 211.455 15.0703C211.525 15.2539 211.578 15.457 211.613 15.6797C211.652 15.8984 211.672 16.1309 211.672 16.377V17.0918C211.672 17.3535 211.652 17.5977 211.613 17.8242C211.578 18.0469 211.525 18.25 211.455 18.4336C211.369 18.6445 211.266 18.8301 211.145 18.9902C211.027 19.1465 210.895 19.2754 210.746 19.377C210.602 19.4746 210.441 19.5488 210.266 19.5996C210.09 19.6504 209.9 19.6758 209.697 19.6758H209.064V13.8047ZM219.898 17.2617V15.9609H216.395V13.8105H220.473V12.4688H214.742V21H220.49V19.6699H216.395V17.2617H219.898ZM86.9141 37H88.5898L91.1738 28.4688H89.3574L87.9043 34.0352L87.7461 34.6152L87.5996 34.041L86.1523 28.4688H84.3359L86.9141 37ZM92.4922 28.4688V29.7988H94.1152V35.6758H92.4922V37H97.4258V35.6758H95.7617V29.7988H97.4258V28.4688H92.4922ZM99.3008 37H101.592C101.971 37 102.326 36.9531 102.658 36.8594C102.994 36.7656 103.301 36.6309 103.578 36.4551C103.816 36.3066 104.035 36.123 104.234 35.9043C104.434 35.6816 104.607 35.4395 104.756 35.1777C104.912 34.8848 105.033 34.5625 105.119 34.2109C105.205 33.8594 105.248 33.4863 105.248 33.0918V32.3887C105.248 31.9785 105.201 31.5918 105.107 31.2285C105.018 30.8652 104.889 30.5332 104.721 30.2324C104.576 29.9863 104.406 29.7598 104.211 29.5527C104.02 29.3418 103.801 29.1641 103.555 29.0195C103.273 28.8438 102.961 28.709 102.617 28.6152C102.273 28.5176 101.904 28.4688 101.51 28.4688H99.3008V37ZM100.959 29.8047H101.51C101.709 29.8047 101.893 29.8281 102.061 29.875C102.232 29.918 102.389 29.9805 102.529 30.0625C102.713 30.1719 102.873 30.3125 103.01 30.4844C103.15 30.6562 103.264 30.8516 103.35 31.0703C103.42 31.2539 103.473 31.457 103.508 31.6797C103.547 31.8984 103.566 32.1309 103.566 32.377V33.0918C103.566 33.3535 103.547 33.5977 103.508 33.8242C103.473 34.0469 103.42 34.25 103.35 34.4336C103.264 34.6445 103.16 34.8301 103.039 34.9902C102.922 35.1465 102.789 35.2754 102.641 35.377C102.496 35.4746 102.336 35.5488 102.16 35.5996C101.984 35.6504 101.795 35.6758 101.592 35.6758H100.959V29.8047ZM110.738 35.2188L111.236 37H112.971L110.229 28.4688H108.734L105.939 37H107.674L108.178 35.2188H110.738ZM108.582 33.8184L109.479 30.6777L110.352 33.8184H108.582ZM124.332 39.4023V28.4688H123.312V39.4023H124.332ZM140.088 34.8438C140.088 35.0781 140.037 35.2812 139.936 35.4531C139.834 35.6211 139.703 35.7598 139.543 35.8691C139.383 35.9824 139.199 36.0664 138.992 36.1211C138.789 36.1719 138.582 36.1973 138.371 36.1973C138.105 36.1973 137.859 36.1621 137.633 36.0918C137.41 36.0176 137.213 35.9082 137.041 35.7637C136.869 35.623 136.729 35.4512 136.619 35.248C136.51 35.041 136.438 34.8047 136.402 34.5391H135.295C135.307 34.9062 135.387 35.2402 135.535 35.541C135.688 35.8379 135.893 36.0977 136.15 36.3203C136.439 36.5781 136.779 36.7754 137.17 36.9121C137.564 37.0488 137.965 37.1172 138.371 37.1172C138.711 37.1172 139.051 37.0703 139.391 36.9766C139.73 36.8789 140.035 36.7344 140.305 36.543C140.574 36.3555 140.793 36.1191 140.961 35.834C141.133 35.5488 141.219 35.2148 141.219 34.832C141.219 34.4531 141.139 34.1191 140.979 33.8301C140.822 33.541 140.615 33.2969 140.357 33.0977C140.096 32.8828 139.807 32.707 139.49 32.5703C139.174 32.4297 138.857 32.3105 138.541 32.2129C138.35 32.1543 138.145 32.0859 137.926 32.0078C137.711 31.9297 137.512 31.832 137.328 31.7148C137.141 31.5977 136.986 31.4551 136.865 31.2871C136.744 31.1152 136.682 30.9062 136.678 30.6602C136.678 30.4336 136.723 30.2344 136.812 30.0625C136.906 29.8906 137.031 29.7461 137.188 29.6289C137.34 29.5117 137.514 29.4238 137.709 29.3652C137.908 29.3066 138.111 29.2773 138.318 29.2773C138.576 29.2773 138.807 29.3184 139.01 29.4004C139.217 29.4785 139.395 29.5898 139.543 29.7344C139.691 29.8789 139.811 30.0527 139.9 30.2559C139.99 30.4551 140.051 30.6777 140.082 30.9238H141.195C141.188 30.5332 141.104 30.1797 140.943 29.8633C140.783 29.5469 140.57 29.2773 140.305 29.0547C140.039 28.832 139.734 28.6602 139.391 28.5391C139.047 28.4141 138.689 28.3516 138.318 28.3516C137.982 28.3516 137.648 28.4043 137.316 28.5098C136.984 28.6113 136.688 28.7617 136.426 28.9609C136.164 29.1602 135.951 29.4043 135.787 29.6934C135.627 29.9824 135.547 30.3105 135.547 30.6777C135.547 31.0449 135.627 31.3652 135.787 31.6387C135.951 31.9082 136.162 32.1426 136.42 32.3418C136.674 32.5371 136.955 32.7051 137.264 32.8457C137.576 32.9824 137.883 33.0996 138.184 33.1973C138.391 33.2637 138.605 33.3379 138.828 33.4199C139.055 33.502 139.262 33.6035 139.449 33.7246C139.637 33.8496 139.789 34.002 139.906 34.1816C140.027 34.3613 140.088 34.582 140.088 34.8438ZM148.379 33.2266V32.2539C148.375 31.9492 148.348 31.6406 148.297 31.3281C148.25 31.0156 148.176 30.7148 148.074 30.4258C147.969 30.1367 147.836 29.8672 147.676 29.6172C147.52 29.3633 147.332 29.1426 147.113 28.9551C146.895 28.7676 146.643 28.6211 146.357 28.5156C146.072 28.4062 145.754 28.3516 145.402 28.3516C145.051 28.3516 144.732 28.4062 144.447 28.5156C144.166 28.6211 143.916 28.7676 143.697 28.9551C143.479 29.1465 143.289 29.3691 143.129 29.623C142.973 29.873 142.844 30.1426 142.742 30.4316C142.637 30.7207 142.559 31.0215 142.508 31.334C142.461 31.6426 142.436 31.9492 142.432 32.2539V33.2266C142.436 33.5312 142.463 33.8379 142.514 34.1465C142.564 34.4551 142.643 34.7539 142.748 35.043C142.85 35.332 142.98 35.6035 143.141 35.8574C143.301 36.1074 143.49 36.3262 143.709 36.5137C143.928 36.7012 144.178 36.8496 144.459 36.959C144.744 37.0645 145.062 37.1172 145.414 37.1172C145.766 37.1172 146.082 37.0645 146.363 36.959C146.648 36.8496 146.9 36.7012 147.119 36.5137C147.338 36.3262 147.525 36.1074 147.682 35.8574C147.842 35.6074 147.973 35.3379 148.074 35.0488C148.176 34.7598 148.25 34.4609 148.297 34.1523C148.348 33.8398 148.375 33.5312 148.379 33.2266ZM147.307 32.2422V33.2266C147.303 33.4297 147.289 33.6426 147.266 33.8652C147.246 34.0879 147.209 34.3066 147.154 34.5215C147.096 34.7402 147.02 34.9492 146.926 35.1484C146.836 35.3438 146.723 35.5156 146.586 35.6641C146.445 35.8164 146.277 35.9375 146.082 36.0273C145.891 36.1172 145.668 36.1621 145.414 36.1621C145.16 36.1621 144.938 36.1172 144.746 36.0273C144.555 35.9375 144.389 35.8164 144.248 35.6641C144.107 35.5156 143.99 35.3418 143.896 35.1426C143.803 34.9434 143.727 34.7344 143.668 34.5156C143.609 34.3008 143.566 34.082 143.539 33.8594C143.516 33.6367 143.502 33.4258 143.498 33.2266V32.2422C143.502 32.043 143.516 31.834 143.539 31.6152C143.566 31.3926 143.609 31.1719 143.668 30.9531C143.723 30.7383 143.797 30.5332 143.891 30.3379C143.984 30.1387 144.102 29.9629 144.242 29.8105C144.383 29.6621 144.549 29.543 144.74 29.4531C144.932 29.3633 145.152 29.3184 145.402 29.3184C145.656 29.3184 145.879 29.3633 146.07 29.4531C146.262 29.5391 146.428 29.6562 146.568 29.8047C146.709 29.957 146.826 30.1328 146.92 30.332C147.014 30.5273 147.09 30.7324 147.148 30.9473C147.203 31.166 147.242 31.3867 147.266 31.6094C147.289 31.8281 147.303 32.0391 147.307 32.2422ZM155.562 34.4336H154.479C154.443 34.6914 154.383 34.9316 154.297 35.1543C154.211 35.373 154.096 35.5625 153.951 35.7227C153.807 35.8867 153.629 36.0137 153.418 36.1035C153.211 36.1934 152.965 36.2383 152.68 36.2383C152.418 36.2383 152.189 36.1973 151.994 36.1152C151.799 36.0293 151.629 35.9121 151.484 35.7637C151.34 35.6191 151.221 35.4512 151.127 35.2598C151.033 35.0684 150.957 34.8633 150.898 34.6445C150.84 34.4297 150.797 34.2109 150.77 33.9883C150.746 33.7617 150.734 33.543 150.734 33.332V32.1309C150.734 31.9199 150.746 31.7031 150.77 31.4805C150.797 31.2539 150.84 31.0332 150.898 30.8184C150.957 30.6035 151.033 30.4004 151.127 30.209C151.225 30.0176 151.346 29.8496 151.49 29.7051C151.631 29.5605 151.799 29.4473 151.994 29.3652C152.193 29.2793 152.422 29.2363 152.68 29.2363C152.965 29.2363 153.211 29.2852 153.418 29.3828C153.629 29.4766 153.807 29.6074 153.951 29.7754C154.096 29.9434 154.211 30.1387 154.297 30.3613C154.383 30.584 154.443 30.8242 154.479 31.082H155.562C155.516 30.6758 155.418 30.3047 155.27 29.9688C155.125 29.6328 154.932 29.3438 154.689 29.1016C154.447 28.8633 154.158 28.6797 153.822 28.5508C153.486 28.418 153.105 28.3516 152.68 28.3516C152.324 28.3516 152.004 28.4023 151.719 28.5039C151.434 28.6016 151.18 28.7383 150.957 28.9141C150.73 29.0898 150.535 29.2988 150.371 29.541C150.211 29.7793 150.078 30.0391 149.973 30.3203C149.863 30.6016 149.781 30.8965 149.727 31.2051C149.676 31.5137 149.648 31.8262 149.645 32.1426V33.332C149.648 33.6484 149.676 33.9609 149.727 34.2695C149.781 34.5781 149.863 34.873 149.973 35.1543C150.078 35.4355 150.211 35.6953 150.371 35.9336C150.535 36.1719 150.73 36.3789 150.957 36.5547C151.18 36.7305 151.434 36.8691 151.719 36.9707C152.008 37.0684 152.328 37.1172 152.68 37.1172C153.09 37.1172 153.461 37.0527 153.793 36.9238C154.129 36.791 154.42 36.6055 154.666 36.3672C154.908 36.1328 155.105 35.8516 155.258 35.5234C155.41 35.1914 155.512 34.8281 155.562 34.4336ZM157.244 28.4688V29.4121H159.242V36.0625H157.244V37H162.4V36.0625H160.355V29.4121H162.4V28.4688H157.244ZM168.523 34.791L169.197 37H170.275L167.568 28.4688H166.66L163.906 37H164.99L165.676 34.791H168.523ZM165.969 33.8477L167.111 30.1445L168.236 33.8477H165.969Z" fill="#9306AD"/>
<path d="M172.883 36.0801V28.4688H171.799V37H177.055V36.0801H172.883Z" fill="black"/>
<path d="M236 53H26L54 143H207L236 53Z" stroke="#8CF5D5" stroke-width="2"/>
<path d="M90.875 81.3613V80.1191C90.875 79.7324 90.8379 79.3672 90.7637 79.0234C90.6934 78.6797 90.5898 78.3633 90.4531 78.0742C90.3281 77.8203 90.1777 77.5879 90.002 77.377C89.8301 77.166 89.6289 76.9863 89.3984 76.8379C89.168 76.6816 88.9082 76.5625 88.6191 76.4805C88.334 76.3945 88.0273 76.3516 87.6992 76.3516C87.375 76.3516 87.0742 76.3926 86.7969 76.4746C86.5195 76.5566 86.2695 76.6738 86.0469 76.8262C85.8203 76.9824 85.6191 77.1699 85.4434 77.3887C85.2715 77.6074 85.125 77.8516 85.0039 78.1211C84.8789 78.4062 84.7832 78.7168 84.7168 79.0527C84.6543 79.3887 84.623 79.7441 84.623 80.1191V81.3613C84.623 81.7129 84.6504 82.0469 84.7051 82.3633C84.7637 82.6797 84.8477 82.9727 84.957 83.2422C85.0781 83.5352 85.2285 83.7988 85.4082 84.0332C85.5879 84.2637 85.791 84.4609 86.0176 84.625C86.248 84.7812 86.5039 84.9023 86.7852 84.9883C87.0664 85.0742 87.373 85.1172 87.7051 85.1172C88.0176 85.1172 88.3086 85.0781 88.5781 85C88.8516 84.9258 89.1016 84.8203 89.3281 84.6836C89.5781 84.5273 89.8008 84.332 89.9961 84.0977C90.1914 83.8633 90.3555 83.6055 90.4883 83.3242C90.6133 83.043 90.709 82.7383 90.7754 82.4102C90.8418 82.0781 90.875 81.7285 90.875 81.3613ZM89.2051 80.1074V81.3613C89.2051 81.5723 89.1934 81.7754 89.1699 81.9707C89.1504 82.166 89.1191 82.3457 89.0762 82.5098C89.0215 82.7207 88.9473 82.9102 88.8535 83.0781C88.7637 83.2422 88.6523 83.3789 88.5195 83.4883C88.4141 83.5781 88.293 83.6465 88.1562 83.6934C88.0195 83.7402 87.8691 83.7637 87.7051 83.7637C87.5332 83.7637 87.3789 83.7383 87.2422 83.6875C87.1094 83.6367 86.9902 83.5645 86.8848 83.4707C86.7715 83.3652 86.6719 83.2285 86.5859 83.0605C86.5039 82.8887 86.4414 82.6992 86.3984 82.4922C86.3594 82.3281 86.332 82.1504 86.3164 81.959C86.3008 81.7676 86.293 81.5684 86.293 81.3613V80.1074C86.293 79.8887 86.3008 79.6797 86.3164 79.4805C86.3359 79.2812 86.3652 79.0977 86.4043 78.9297C86.4551 78.7109 86.5254 78.5195 86.6152 78.3555C86.709 78.1914 86.8223 78.0547 86.9551 77.9453C87.0527 77.8711 87.1621 77.8145 87.2832 77.7754C87.4082 77.7363 87.5469 77.7168 87.6992 77.7168C87.8594 77.7168 88.0039 77.7383 88.1328 77.7812C88.2656 77.8242 88.3848 77.8848 88.4902 77.9629C88.623 78.0684 88.7383 78.2051 88.8359 78.373C88.9336 78.5371 89.0117 78.7246 89.0703 78.9355C89.1172 79.1035 89.1504 79.2871 89.1699 79.4863C89.1934 79.6816 89.2051 79.8887 89.2051 80.1074ZM105.342 81.6191V80.1426C105.342 79.8418 105.32 79.5547 105.277 79.2812C105.234 79.0039 105.17 78.7441 105.084 78.502C104.967 78.1582 104.807 77.8477 104.604 77.5703C104.4 77.293 104.164 77.0586 103.895 76.8672C103.656 76.7031 103.391 76.5762 103.098 76.4863C102.805 76.3965 102.49 76.3516 102.154 76.3516C101.818 76.3516 101.508 76.3965 101.223 76.4863C100.938 76.5762 100.68 76.7031 100.449 76.8672C100.195 77.0469 99.9766 77.2656 99.793 77.5234C99.6094 77.7773 99.4629 78.0625 99.3535 78.3789C99.2598 78.6328 99.1875 78.9102 99.1367 79.2109C99.0898 79.5078 99.0664 79.8184 99.0664 80.1426V81.6191C99.0664 81.9004 99.0918 82.1758 99.1426 82.4453C99.1934 82.7109 99.2676 82.9629 99.3652 83.2012C99.4746 83.4746 99.6172 83.7305 99.793 83.9688C99.9727 84.207 100.182 84.4121 100.42 84.584C100.654 84.752 100.916 84.8828 101.205 84.9766C101.494 85.0703 101.811 85.1172 102.154 85.1172C102.307 85.1172 102.453 85.1074 102.594 85.0879C102.738 85.0684 102.879 85.041 103.016 85.0059L104.639 86.5059L105.699 85.5625L104.287 84.2852C104.439 84.1406 104.574 83.9824 104.691 83.8105C104.812 83.6348 104.916 83.4512 105.002 83.2598C105.111 83.0137 105.193 82.752 105.248 82.4746C105.307 82.1973 105.338 81.9121 105.342 81.6191ZM103.672 80.1309V81.6191C103.672 81.7754 103.662 81.9316 103.643 82.0879C103.623 82.2402 103.594 82.3887 103.555 82.5332C103.5 82.7246 103.424 82.9043 103.326 83.0723C103.232 83.2402 103.117 83.3809 102.98 83.4941C102.871 83.5762 102.748 83.6426 102.611 83.6934C102.475 83.7402 102.322 83.7637 102.154 83.7637C101.99 83.7637 101.842 83.7402 101.709 83.6934C101.58 83.6465 101.467 83.5801 101.369 83.4941C101.232 83.3809 101.119 83.2383 101.029 83.0664C100.939 82.8945 100.871 82.7031 100.824 82.4922C100.793 82.3555 100.77 82.2129 100.754 82.0645C100.742 81.916 100.736 81.7676 100.736 81.6191V80.1309C100.736 79.9551 100.742 79.7871 100.754 79.627C100.766 79.4629 100.783 79.3086 100.807 79.1641C100.846 78.9141 100.908 78.6895 100.994 78.4902C101.084 78.2871 101.203 78.1211 101.352 77.9922C101.453 77.9023 101.57 77.834 101.703 77.7871C101.836 77.7402 101.986 77.7168 102.154 77.7168C102.33 77.7168 102.488 77.7422 102.629 77.793C102.773 77.8438 102.9 77.9141 103.01 78.0039C103.123 78.1094 103.225 78.2383 103.314 78.3906C103.404 78.5391 103.473 78.7051 103.52 78.8887C103.574 79.0645 103.613 79.2578 103.637 79.4688C103.66 79.6797 103.672 79.9004 103.672 80.1309ZM112.227 76.4688H110.592L110.586 82.123C110.582 82.4004 110.553 82.6445 110.498 82.8555C110.443 83.0664 110.361 83.2422 110.252 83.3828C110.15 83.5195 110.021 83.623 109.865 83.6934C109.713 83.7598 109.537 83.793 109.338 83.793C109.154 83.793 108.992 83.7617 108.852 83.6992C108.711 83.6328 108.592 83.5352 108.494 83.4062C108.389 83.2656 108.309 83.0879 108.254 82.873C108.203 82.6582 108.176 82.4082 108.172 82.123L108.166 76.4688H106.52L106.514 82.123C106.514 82.5996 106.58 83.0254 106.713 83.4004C106.85 83.7715 107.041 84.084 107.287 84.3379C107.533 84.5918 107.828 84.7852 108.172 84.918C108.52 85.0508 108.908 85.1172 109.338 85.1172C109.795 85.1172 110.201 85.0508 110.557 84.918C110.916 84.7852 111.221 84.5898 111.471 84.332C111.717 84.0781 111.904 83.7656 112.033 83.3945C112.166 83.0234 112.232 82.5996 112.232 82.123L112.227 76.4688ZM119 81.2617V79.9609H115.496V77.8105H119.574V76.4688H113.844V85H119.592V83.6699H115.496V81.2617H119ZM133.578 81.4668V80.1309H129.922V77.8105H134.035V76.4688H128.27V85H129.922V81.4668H133.578ZM139.566 83.2188L140.064 85H141.799L139.057 76.4688H137.562L134.768 85H136.502L137.006 83.2188H139.566ZM137.41 81.8184L138.307 78.6777L139.18 81.8184H137.41ZM144.336 83.6699L148.467 77.4473L148.461 76.4688H142.344V77.8105H146.469L142.332 83.9922V85H148.566V83.6699H144.336ZM155.035 81.2617V79.9609H151.531V77.8105H155.609V76.4688H149.879V85H155.627V83.6699H151.531V81.2617H155.035ZM159.887 81.8125L161.492 85H163.256V84.9238L161.422 81.4023C161.656 81.2969 161.867 81.1719 162.055 81.0273C162.246 80.8828 162.41 80.7129 162.547 80.5176C162.68 80.3262 162.781 80.1094 162.852 79.8672C162.926 79.6211 162.963 79.3457 162.963 79.041C162.963 78.6191 162.889 78.248 162.74 77.9277C162.596 77.6074 162.389 77.3398 162.119 77.125C161.846 76.9102 161.518 76.748 161.135 76.6387C160.752 76.5254 160.324 76.4688 159.852 76.4688H156.992V85H158.639V81.8125H159.887ZM158.639 80.4766V77.8047H159.852C160.078 77.8047 160.279 77.832 160.455 77.8867C160.631 77.9414 160.779 78.0195 160.9 78.1211C161.037 78.2344 161.139 78.3789 161.205 78.5547C161.275 78.7266 161.311 78.9258 161.311 79.1523C161.311 79.3398 161.283 79.5098 161.229 79.6621C161.178 79.8145 161.102 79.9453 161 80.0547C160.879 80.1914 160.721 80.2969 160.525 80.3711C160.334 80.4414 160.111 80.4766 159.857 80.4766H158.639ZM64.7422 92.4688H63.4004V101H64.4551V97.5957L64.3672 94.1562L65.8145 98.627H66.4355L68.0117 94.0332L67.9238 97.5957V101H68.9785V92.4688H67.6309L66.1309 96.7344L64.7422 92.4688ZM70.7598 92.4688V93.4121H72.7578V100.062H70.7598V101H75.916V100.062H73.8711V93.4121H75.916V92.4688H70.7598ZM83.4863 99.8809L83.4688 96.752H80.7031V97.666H82.4375L82.4258 99.582C82.3359 99.7109 82.2246 99.8164 82.0918 99.8984C81.959 99.9766 81.8164 100.039 81.6641 100.086C81.5117 100.133 81.3535 100.164 81.1895 100.18C81.0293 100.195 80.875 100.201 80.7266 100.197C80.4688 100.193 80.2383 100.148 80.0352 100.062C79.832 99.9727 79.6543 99.8535 79.502 99.7051C79.3457 99.5566 79.2129 99.3848 79.1035 99.1895C78.9941 98.9941 78.9043 98.7871 78.834 98.5684C78.7637 98.3496 78.7109 98.127 78.6758 97.9004C78.6445 97.6699 78.627 97.4473 78.623 97.2324V96.2305C78.623 96.0195 78.6367 95.8008 78.6641 95.5742C78.6914 95.3477 78.7363 95.125 78.7988 94.9062C78.8613 94.6875 78.9414 94.4805 79.0391 94.2852C79.1367 94.0859 79.2598 93.9121 79.4082 93.7637C79.5566 93.6152 79.7305 93.498 79.9297 93.4121C80.1289 93.3223 80.3574 93.2773 80.6152 93.2773C80.8848 93.2773 81.1211 93.3203 81.3242 93.4062C81.5273 93.4883 81.7031 93.6035 81.8516 93.752C81.9961 93.9004 82.1133 94.0801 82.2031 94.291C82.293 94.498 82.3594 94.7246 82.4023 94.9707H83.4746C83.4395 94.5723 83.3457 94.2129 83.1934 93.8926C83.041 93.5684 82.8398 93.291 82.5898 93.0605C82.3398 92.834 82.0469 92.6602 81.7109 92.5391C81.375 92.4141 81.0078 92.3516 80.6094 92.3516C80.25 92.3516 79.9258 92.4043 79.6367 92.5098C79.3477 92.6152 79.0898 92.7578 78.8633 92.9375C78.6328 93.1211 78.4355 93.3379 78.2715 93.5879C78.1074 93.834 77.9707 94.1016 77.8613 94.3906C77.752 94.6797 77.6699 94.9824 77.6152 95.2988C77.5645 95.6113 77.5371 95.9258 77.5332 96.2422V97.2324C77.5371 97.5527 77.5684 97.8711 77.627 98.1875C77.6895 98.5 77.7812 98.7988 77.9023 99.084C78.0195 99.373 78.166 99.6406 78.3418 99.8867C78.5176 100.133 78.7227 100.346 78.957 100.525C79.1914 100.709 79.4551 100.854 79.748 100.959C80.0449 101.061 80.3691 101.113 80.7207 101.117C81.0684 101.121 81.4004 101.082 81.7168 101C82.0332 100.922 82.3281 100.801 82.6016 100.637C82.7617 100.543 82.916 100.434 83.0645 100.309C83.2129 100.18 83.3535 100.037 83.4863 99.8809ZM87.998 97.5195L89.6738 101H90.8164L90.8223 100.93L89.0117 97.2852C89.2461 97.1836 89.4609 97.0605 89.6562 96.916C89.8516 96.7715 90.0195 96.6055 90.1602 96.418C90.3008 96.2305 90.4102 96.0215 90.4883 95.791C90.5703 95.5605 90.6113 95.3066 90.6113 95.0293C90.6113 94.5996 90.5352 94.2266 90.3828 93.9102C90.2344 93.5898 90.0293 93.3242 89.7676 93.1133C89.502 92.9023 89.1934 92.7441 88.8418 92.6387C88.4902 92.5332 88.1152 92.4766 87.7168 92.4688H85.2148V101H86.293V97.5195H87.998ZM86.293 96.6289V93.3594H87.7168C87.9785 93.3633 88.2188 93.4004 88.4375 93.4707C88.6602 93.541 88.8516 93.6445 89.0117 93.7812C89.1719 93.9219 89.2969 94.0957 89.3867 94.3027C89.4766 94.5059 89.5215 94.7441 89.5215 95.0176C89.5215 95.2754 89.4746 95.5039 89.3809 95.7031C89.2871 95.8984 89.1602 96.0645 89 96.2012C88.8359 96.3379 88.6465 96.4434 88.4316 96.5176C88.2168 96.5879 87.9883 96.625 87.7461 96.6289H86.293ZM96.4531 98.791L97.127 101H98.2051L95.498 92.4688H94.5898L91.8359 101H92.9199L93.6055 98.791H96.4531ZM93.8984 97.8477L95.041 94.1445L96.166 97.8477H93.8984ZM105.113 98.4336H104.029C103.994 98.6914 103.934 98.9316 103.848 99.1543C103.762 99.373 103.646 99.5625 103.502 99.7227C103.357 99.8867 103.18 100.014 102.969 100.104C102.762 100.193 102.516 100.238 102.23 100.238C101.969 100.238 101.74 100.197 101.545 100.115C101.35 100.029 101.18 99.9121 101.035 99.7637C100.891 99.6191 100.771 99.4512 100.678 99.2598C100.584 99.0684 100.508 98.8633 100.449 98.6445C100.391 98.4297 100.348 98.2109 100.32 97.9883C100.297 97.7617 100.285 97.543 100.285 97.332V96.1309C100.285 95.9199 100.297 95.7031 100.32 95.4805C100.348 95.2539 100.391 95.0332 100.449 94.8184C100.508 94.6035 100.584 94.4004 100.678 94.209C100.775 94.0176 100.896 93.8496 101.041 93.7051C101.182 93.5605 101.35 93.4473 101.545 93.3652C101.744 93.2793 101.973 93.2363 102.23 93.2363C102.516 93.2363 102.762 93.2852 102.969 93.3828C103.18 93.4766 103.357 93.6074 103.502 93.7754C103.646 93.9434 103.762 94.1387 103.848 94.3613C103.934 94.584 103.994 94.8242 104.029 95.082H105.113C105.066 94.6758 104.969 94.3047 104.82 93.9688C104.676 93.6328 104.482 93.3438 104.24 93.1016C103.998 92.8633 103.709 92.6797 103.373 92.5508C103.037 92.418 102.656 92.3516 102.23 92.3516C101.875 92.3516 101.555 92.4023 101.27 92.5039C100.984 92.6016 100.73 92.7383 100.508 92.9141C100.281 93.0898 100.086 93.2988 99.9219 93.541C99.7617 93.7793 99.6289 94.0391 99.5234 94.3203C99.4141 94.6016 99.332 94.8965 99.2773 95.2051C99.2266 95.5137 99.1992 95.8262 99.1953 96.1426V97.332C99.1992 97.6484 99.2266 97.9609 99.2773 98.2695C99.332 98.5781 99.4141 98.873 99.5234 99.1543C99.6289 99.4355 99.7617 99.6953 99.9219 99.9336C100.086 100.172 100.281 100.379 100.508 100.555C100.73 100.73 100.984 100.869 101.27 100.971C101.559 101.068 101.879 101.117 102.23 101.117C102.641 101.117 103.012 101.053 103.344 100.924C103.68 100.791 103.971 100.605 104.217 100.367C104.459 100.133 104.656 99.8516 104.809 99.5234C104.961 99.1914 105.062 98.8281 105.113 98.4336ZM102.576 101H101.797L101.615 101.785C101.771 101.797 101.908 101.814 102.025 101.838C102.143 101.861 102.242 101.893 102.324 101.932C102.402 101.975 102.461 102.029 102.5 102.096C102.539 102.162 102.559 102.244 102.559 102.342C102.559 102.447 102.531 102.535 102.477 102.605C102.426 102.68 102.357 102.74 102.271 102.787C102.182 102.834 102.078 102.867 101.961 102.887C101.844 102.91 101.719 102.922 101.586 102.922L101.627 103.549C101.865 103.549 102.082 103.527 102.277 103.484C102.477 103.441 102.648 103.383 102.793 103.309C102.988 103.203 103.139 103.066 103.244 102.898C103.35 102.73 103.402 102.537 103.402 102.318C103.402 102.15 103.377 102.006 103.326 101.885C103.275 101.768 103.209 101.67 103.127 101.592C103.041 101.514 102.943 101.451 102.834 101.404C102.729 101.357 102.619 101.324 102.506 101.305L102.576 101ZM110.867 98.791L111.541 101H112.619L109.912 92.4688H109.004L106.25 101H107.334L108.02 98.791H110.867ZM108.312 97.8477L109.455 94.1445L110.58 97.8477H108.312ZM111.477 90.1953L110.873 90.0195C110.873 90.1094 110.855 90.1953 110.82 90.2773C110.789 90.3555 110.748 90.4238 110.697 90.4824C110.643 90.541 110.578 90.5879 110.504 90.623C110.43 90.6582 110.352 90.6758 110.27 90.6758C110.117 90.6758 109.977 90.6465 109.848 90.5879C109.723 90.5293 109.6 90.4648 109.479 90.3945C109.354 90.3281 109.225 90.2656 109.092 90.207C108.963 90.1484 108.816 90.1191 108.652 90.1191C108.473 90.1191 108.309 90.1562 108.16 90.2305C108.016 90.3047 107.891 90.4023 107.785 90.5234C107.68 90.6484 107.596 90.793 107.533 90.957C107.475 91.1172 107.445 91.2852 107.445 91.4609L108.055 91.6016C108.059 91.4219 108.115 91.2695 108.225 91.1445C108.338 91.0156 108.48 90.9512 108.652 90.9512C108.758 90.9512 108.854 90.9648 108.939 90.9922C109.025 91.0195 109.107 91.0527 109.186 91.0918C109.26 91.1348 109.334 91.1816 109.408 91.2324C109.482 91.2793 109.562 91.3223 109.648 91.3613C109.73 91.4043 109.822 91.4395 109.924 91.4668C110.025 91.4941 110.141 91.5078 110.27 91.5078C110.445 91.5078 110.607 91.4727 110.756 91.4023C110.904 91.332 111.031 91.2363 111.137 91.1152C111.242 90.998 111.324 90.8594 111.383 90.6992C111.445 90.5391 111.477 90.3711 111.477 90.1953ZM119.551 97.2266V96.2539C119.547 95.9492 119.52 95.6406 119.469 95.3281C119.422 95.0156 119.348 94.7148 119.246 94.4258C119.141 94.1367 119.008 93.8672 118.848 93.6172C118.691 93.3633 118.504 93.1426 118.285 92.9551C118.066 92.7676 117.814 92.6211 117.529 92.5156C117.244 92.4062 116.926 92.3516 116.574 92.3516C116.223 92.3516 115.904 92.4062 115.619 92.5156C115.338 92.6211 115.088 92.7676 114.869 92.9551C114.65 93.1465 114.461 93.3691 114.301 93.623C114.145 93.873 114.016 94.1426 113.914 94.4316C113.809 94.7207 113.73 95.0215 113.68 95.334C113.633 95.6426 113.607 95.9492 113.604 96.2539V97.2266C113.607 97.5312 113.635 97.8379 113.686 98.1465C113.736 98.4551 113.814 98.7539 113.92 99.043C114.021 99.332 114.152 99.6035 114.312 99.8574C114.473 100.107 114.662 100.326 114.881 100.514C115.1 100.701 115.35 100.85 115.631 100.959C115.916 101.064 116.234 101.117 116.586 101.117C116.938 101.117 117.254 101.064 117.535 100.959C117.82 100.85 118.072 100.701 118.291 100.514C118.51 100.326 118.697 100.107 118.854 99.8574C119.014 99.6074 119.145 99.3379 119.246 99.0488C119.348 98.7598 119.422 98.4609 119.469 98.1523C119.52 97.8398 119.547 97.5312 119.551 97.2266ZM118.479 96.2422V97.2266C118.475 97.4297 118.461 97.6426 118.438 97.8652C118.418 98.0879 118.381 98.3066 118.326 98.5215C118.268 98.7402 118.191 98.9492 118.098 99.1484C118.008 99.3438 117.895 99.5156 117.758 99.6641C117.617 99.8164 117.449 99.9375 117.254 100.027C117.062 100.117 116.84 100.162 116.586 100.162C116.332 100.162 116.109 100.117 115.918 100.027C115.727 99.9375 115.561 99.8164 115.42 99.6641C115.279 99.5156 115.162 99.3418 115.068 99.1426C114.975 98.9434 114.898 98.7344 114.84 98.5156C114.781 98.3008 114.738 98.082 114.711 97.8594C114.688 97.6367 114.674 97.4258 114.67 97.2266V96.2422C114.674 96.043 114.688 95.834 114.711 95.6152C114.738 95.3926 114.781 95.1719 114.84 94.9531C114.895 94.7383 114.969 94.5332 115.062 94.3379C115.156 94.1387 115.273 93.9629 115.414 93.8105C115.555 93.6621 115.721 93.543 115.912 93.4531C116.104 93.3633 116.324 93.3184 116.574 93.3184C116.828 93.3184 117.051 93.3633 117.242 93.4531C117.434 93.5391 117.6 93.6562 117.74 93.8047C117.881 93.957 117.998 94.1328 118.092 94.332C118.186 94.5273 118.262 94.7324 118.32 94.9473C118.375 95.166 118.414 95.3867 118.438 95.6094C118.461 95.8281 118.475 96.0391 118.479 96.2422ZM131.539 103.402V92.4688H130.52V103.402H131.539ZM147.828 97.2617V95.9609H144.324V93.8105H148.402V92.4688H142.672V101H148.42V99.6699H144.324V97.2617H147.828ZM149.75 101H152.041C152.42 101 152.775 100.953 153.107 100.859C153.443 100.766 153.75 100.631 154.027 100.455C154.266 100.307 154.484 100.123 154.684 99.9043C154.883 99.6816 155.057 99.4395 155.205 99.1777C155.361 98.8848 155.482 98.5625 155.568 98.2109C155.654 97.8594 155.697 97.4863 155.697 97.0918V96.3887C155.697 95.9785 155.65 95.5918 155.557 95.2285C155.467 94.8652 155.338 94.5332 155.17 94.2324C155.025 93.9863 154.855 93.7598 154.66 93.5527C154.469 93.3418 154.25 93.1641 154.004 93.0195C153.723 92.8438 153.41 92.709 153.066 92.6152C152.723 92.5176 152.354 92.4688 151.959 92.4688H149.75V101ZM151.408 93.8047H151.959C152.158 93.8047 152.342 93.8281 152.51 93.875C152.682 93.918 152.838 93.9805 152.979 94.0625C153.162 94.1719 153.322 94.3125 153.459 94.4844C153.6 94.6562 153.713 94.8516 153.799 95.0703C153.869 95.2539 153.922 95.457 153.957 95.6797C153.996 95.8984 154.016 96.1309 154.016 96.377V97.0918C154.016 97.3535 153.996 97.5977 153.957 97.8242C153.922 98.0469 153.869 98.25 153.799 98.4336C153.713 98.6445 153.609 98.8301 153.488 98.9902C153.371 99.1465 153.238 99.2754 153.09 99.377C152.945 99.4746 152.785 99.5488 152.609 99.5996C152.434 99.6504 152.244 99.6758 152.041 99.6758H151.408V93.8047ZM162.676 92.4688H161.041L161.035 98.123C161.031 98.4004 161.002 98.6445 160.947 98.8555C160.893 99.0664 160.811 99.2422 160.701 99.3828C160.6 99.5195 160.471 99.623 160.314 99.6934C160.162 99.7598 159.986 99.793 159.787 99.793C159.604 99.793 159.441 99.7617 159.301 99.6992C159.16 99.6328 159.041 99.5352 158.943 99.4062C158.838 99.2656 158.758 99.0879 158.703 98.873C158.652 98.6582 158.625 98.4082 158.621 98.123L158.615 92.4688H156.969L156.963 98.123C156.963 98.5996 157.029 99.0254 157.162 99.4004C157.299 99.7715 157.49 100.084 157.736 100.338C157.982 100.592 158.277 100.785 158.621 100.918C158.969 101.051 159.357 101.117 159.787 101.117C160.244 101.117 160.65 101.051 161.006 100.918C161.365 100.785 161.67 100.59 161.92 100.332C162.166 100.078 162.354 99.7656 162.482 99.3945C162.615 99.0234 162.682 98.5996 162.682 98.123L162.676 92.4688ZM170.123 98.3281H168.477C168.461 98.5859 168.418 98.8066 168.348 98.9902C168.277 99.1738 168.182 99.3242 168.061 99.4414C167.939 99.5586 167.793 99.6445 167.621 99.6992C167.449 99.7539 167.256 99.7812 167.041 99.7812C166.881 99.7812 166.734 99.7637 166.602 99.7285C166.473 99.6895 166.355 99.6309 166.25 99.5527C166.152 99.4824 166.064 99.3945 165.986 99.2891C165.912 99.1836 165.848 99.0625 165.793 98.9258C165.715 98.7266 165.656 98.4941 165.617 98.2285C165.582 97.959 165.564 97.6543 165.564 97.3145V96.1543C165.564 95.9043 165.576 95.6719 165.6 95.457C165.623 95.2383 165.66 95.0391 165.711 94.8594C165.777 94.6289 165.865 94.4277 165.975 94.2559C166.088 94.0801 166.225 93.9453 166.385 93.8516C166.479 93.7969 166.58 93.7559 166.689 93.7285C166.803 93.7012 166.924 93.6875 167.053 93.6875C167.295 93.6875 167.502 93.7207 167.674 93.7871C167.85 93.8496 167.996 93.9434 168.113 94.0684C168.227 94.1973 168.312 94.3574 168.371 94.5488C168.434 94.7402 168.473 94.9629 168.488 95.2168H170.129C170.09 94.7715 169.996 94.3711 169.848 94.0156C169.699 93.6602 169.496 93.3594 169.238 93.1133C168.98 92.8672 168.668 92.6777 168.301 92.5449C167.938 92.4121 167.521 92.3457 167.053 92.3457C166.736 92.3457 166.439 92.3867 166.162 92.4688C165.889 92.5469 165.637 92.6602 165.406 92.8086C165.148 92.9844 164.918 93.1992 164.715 93.4531C164.512 93.707 164.348 93.9961 164.223 94.3203C164.113 94.5859 164.031 94.875 163.977 95.1875C163.922 95.4961 163.895 95.8223 163.895 96.166V97.3145C163.895 97.6816 163.924 98.0293 163.982 98.3574C164.045 98.6855 164.133 98.9863 164.246 99.2598C164.363 99.5332 164.506 99.7832 164.674 100.01C164.846 100.236 165.041 100.43 165.26 100.59C165.498 100.762 165.766 100.895 166.062 100.988C166.363 101.078 166.689 101.123 167.041 101.123C167.486 101.123 167.893 101.059 168.26 100.93C168.627 100.797 168.943 100.609 169.209 100.367C169.475 100.125 169.686 99.832 169.842 99.4883C170.002 99.1445 170.096 98.7578 170.123 98.3281ZM175.602 99.2188L176.1 101H177.834L175.092 92.4688H173.598L170.803 101H172.537L173.041 99.2188H175.602ZM173.445 97.8184L174.342 94.6777L175.215 97.8184H173.445ZM184.537 98.3281H182.891C182.875 98.5859 182.832 98.8066 182.762 98.9902C182.691 99.1738 182.596 99.3242 182.475 99.4414C182.354 99.5586 182.207 99.6445 182.035 99.6992C181.863 99.7539 181.67 99.7812 181.455 99.7812C181.295 99.7812 181.148 99.7637 181.016 99.7285C180.887 99.6895 180.77 99.6309 180.664 99.5527C180.566 99.4824 180.479 99.3945 180.4 99.2891C180.326 99.1836 180.262 99.0625 180.207 98.9258C180.129 98.7266 180.07 98.4941 180.031 98.2285C179.996 97.959 179.979 97.6543 179.979 97.3145V96.1543C179.979 95.9043 179.99 95.6719 180.014 95.457C180.037 95.2383 180.074 95.0391 180.125 94.8594C180.191 94.6289 180.279 94.4277 180.389 94.2559C180.502 94.0801 180.639 93.9453 180.799 93.8516C180.893 93.7969 180.994 93.7559 181.104 93.7285C181.217 93.7012 181.338 93.6875 181.467 93.6875C181.709 93.6875 181.916 93.7207 182.088 93.7871C182.264 93.8496 182.41 93.9434 182.527 94.0684C182.641 94.1973 182.727 94.3574 182.785 94.5488C182.848 94.7402 182.887 94.9629 182.902 95.2168H184.543C184.504 94.7715 184.41 94.3711 184.262 94.0156C184.113 93.6602 183.91 93.3594 183.652 93.1133C183.395 92.8672 183.082 92.6777 182.715 92.5449C182.352 92.4121 181.936 92.3457 181.467 92.3457C181.15 92.3457 180.854 92.3867 180.576 92.4688C180.303 92.5469 180.051 92.6602 179.82 92.8086C179.562 92.9844 179.332 93.1992 179.129 93.4531C178.926 93.707 178.762 93.9961 178.637 94.3203C178.527 94.5859 178.445 94.875 178.391 95.1875C178.336 95.4961 178.309 95.8223 178.309 96.166V97.3145C178.309 97.6816 178.338 98.0293 178.396 98.3574C178.459 98.6855 178.547 98.9863 178.66 99.2598C178.777 99.5332 178.92 99.7832 179.088 100.01C179.26 100.236 179.455 100.43 179.674 100.59C179.912 100.762 180.18 100.895 180.477 100.988C180.777 101.078 181.104 101.123 181.455 101.123C181.9 101.123 182.307 101.059 182.674 100.93C183.041 100.797 183.357 100.609 183.623 100.367C183.889 100.125 184.1 99.832 184.256 99.4883C184.416 99.1445 184.51 98.7578 184.537 98.3281ZM182.105 100.941H180.893L180.711 101.768C180.863 101.779 180.994 101.793 181.104 101.809C181.213 101.828 181.301 101.857 181.367 101.896C181.434 101.932 181.482 101.977 181.514 102.031C181.545 102.086 181.561 102.152 181.561 102.23C181.561 102.32 181.541 102.396 181.502 102.459C181.467 102.521 181.418 102.572 181.355 102.611C181.293 102.646 181.219 102.672 181.133 102.688C181.051 102.707 180.961 102.717 180.863 102.717L180.904 103.654C181.236 103.654 181.527 103.621 181.777 103.555C182.027 103.488 182.238 103.395 182.41 103.273C182.578 103.156 182.705 103.014 182.791 102.846C182.877 102.678 182.92 102.49 182.92 102.283C182.92 102.115 182.895 101.971 182.844 101.85C182.793 101.732 182.727 101.633 182.645 101.551C182.562 101.473 182.469 101.41 182.363 101.363C182.258 101.32 182.15 101.289 182.041 101.27L182.105 100.941ZM190.016 99.2188L190.514 101H192.248L189.506 92.4688H188.012L185.217 101H186.951L187.455 99.2188H190.016ZM187.859 97.8184L188.756 94.6777L189.629 97.8184H187.859ZM190.895 90.0957L190.074 89.9141C190.074 89.9961 190.061 90.0723 190.033 90.1426C190.01 90.209 189.977 90.2656 189.934 90.3125C189.887 90.3672 189.828 90.4102 189.758 90.4414C189.691 90.4688 189.621 90.4824 189.547 90.4824C189.398 90.4824 189.258 90.457 189.125 90.4062C188.992 90.3516 188.861 90.291 188.732 90.2246C188.6 90.1621 188.465 90.1055 188.328 90.0547C188.191 90 188.045 89.9727 187.889 89.9727C187.697 89.9727 187.523 90.0156 187.367 90.1016C187.215 90.1875 187.084 90.2988 186.975 90.4355C186.865 90.5723 186.779 90.7266 186.717 90.8984C186.658 91.0703 186.629 91.2422 186.629 91.4141L187.449 91.5898C187.449 91.5 187.463 91.4199 187.49 91.3496C187.518 91.2754 187.557 91.2148 187.607 91.168C187.654 91.1172 187.709 91.0801 187.771 91.0566C187.834 91.0293 187.9 91.0156 187.971 91.0156C188.123 91.0156 188.26 91.043 188.381 91.0977C188.502 91.1484 188.625 91.2051 188.75 91.2676C188.871 91.334 189 91.3945 189.137 91.4492C189.277 91.5 189.441 91.5254 189.629 91.5254C189.82 91.5254 189.992 91.4844 190.145 91.4023C190.301 91.3203 190.436 91.2109 190.549 91.0742C190.658 90.9414 190.742 90.7891 190.801 90.6172C190.863 90.4453 190.895 90.2715 190.895 90.0957ZM198.98 97.3613V96.1191C198.98 95.7324 198.943 95.3672 198.869 95.0234C198.799 94.6797 198.695 94.3633 198.559 94.0742C198.434 93.8203 198.283 93.5879 198.107 93.377C197.936 93.166 197.734 92.9863 197.504 92.8379C197.273 92.6816 197.014 92.5625 196.725 92.4805C196.439 92.3945 196.133 92.3516 195.805 92.3516C195.48 92.3516 195.18 92.3926 194.902 92.4746C194.625 92.5566 194.375 92.6738 194.152 92.8262C193.926 92.9824 193.725 93.1699 193.549 93.3887C193.377 93.6074 193.23 93.8516 193.109 94.1211C192.984 94.4062 192.889 94.7168 192.822 95.0527C192.76 95.3887 192.729 95.7441 192.729 96.1191V97.3613C192.729 97.7129 192.756 98.0469 192.811 98.3633C192.869 98.6797 192.953 98.9727 193.062 99.2422C193.184 99.5352 193.334 99.7988 193.514 100.033C193.693 100.264 193.896 100.461 194.123 100.625C194.354 100.781 194.609 100.902 194.891 100.988C195.172 101.074 195.479 101.117 195.811 101.117C196.123 101.117 196.414 101.078 196.684 101C196.957 100.926 197.207 100.82 197.434 100.684C197.684 100.527 197.906 100.332 198.102 100.098C198.297 99.8633 198.461 99.6055 198.594 99.3242C198.719 99.043 198.814 98.7383 198.881 98.4102C198.947 98.0781 198.98 97.7285 198.98 97.3613ZM197.311 96.1074V97.3613C197.311 97.5723 197.299 97.7754 197.275 97.9707C197.256 98.166 197.225 98.3457 197.182 98.5098C197.127 98.7207 197.053 98.9102 196.959 99.0781C196.869 99.2422 196.758 99.3789 196.625 99.4883C196.52 99.5781 196.398 99.6465 196.262 99.6934C196.125 99.7402 195.975 99.7637 195.811 99.7637C195.639 99.7637 195.484 99.7383 195.348 99.6875C195.215 99.6367 195.096 99.5645 194.99 99.4707C194.877 99.3652 194.777 99.2285 194.691 99.0605C194.609 98.8887 194.547 98.6992 194.504 98.4922C194.465 98.3281 194.438 98.1504 194.422 97.959C194.406 97.7676 194.398 97.5684 194.398 97.3613V96.1074C194.398 95.8887 194.406 95.6797 194.422 95.4805C194.441 95.2812 194.471 95.0977 194.51 94.9297C194.561 94.7109 194.631 94.5195 194.721 94.3555C194.814 94.1914 194.928 94.0547 195.061 93.9453C195.158 93.8711 195.268 93.8145 195.389 93.7754C195.514 93.7363 195.652 93.7168 195.805 93.7168C195.965 93.7168 196.109 93.7383 196.238 93.7812C196.371 93.8242 196.49 93.8848 196.596 93.9629C196.729 94.0684 196.844 94.2051 196.941 94.373C197.039 94.5371 197.117 94.7246 197.176 94.9355C197.223 95.1035 197.256 95.2871 197.275 95.4863C197.299 95.6816 197.311 95.8887 197.311 96.1074ZM76.2793 115.881L76.2617 112.752H73.4961V113.666H75.2305L75.2188 115.582C75.1289 115.711 75.0176 115.816 74.8848 115.898C74.752 115.977 74.6094 116.039 74.457 116.086C74.3047 116.133 74.1465 116.164 73.9824 116.18C73.8223 116.195 73.668 116.201 73.5195 116.197C73.2617 116.193 73.0312 116.148 72.8281 116.062C72.625 115.973 72.4473 115.854 72.2949 115.705C72.1387 115.557 72.0059 115.385 71.8965 115.189C71.7871 114.994 71.6973 114.787 71.627 114.568C71.5566 114.35 71.5039 114.127 71.4688 113.9C71.4375 113.67 71.4199 113.447 71.416 113.232V112.23C71.416 112.02 71.4297 111.801 71.457 111.574C71.4844 111.348 71.5293 111.125 71.5918 110.906C71.6543 110.688 71.7344 110.48 71.832 110.285C71.9297 110.086 72.0527 109.912 72.2012 109.764C72.3496 109.615 72.5234 109.498 72.7227 109.412C72.9219 109.322 73.1504 109.277 73.4082 109.277C73.6777 109.277 73.9141 109.32 74.1172 109.406C74.3203 109.488 74.4961 109.604 74.6445 109.752C74.7891 109.9 74.9062 110.08 74.9961 110.291C75.0859 110.498 75.1523 110.725 75.1953 110.971H76.2676C76.2324 110.572 76.1387 110.213 75.9863 109.893C75.834 109.568 75.6328 109.291 75.3828 109.061C75.1328 108.834 74.8398 108.66 74.5039 108.539C74.168 108.414 73.8008 108.352 73.4023 108.352C73.043 108.352 72.7188 108.404 72.4297 108.51C72.1406 108.615 71.8828 108.758 71.6562 108.938C71.4258 109.121 71.2285 109.338 71.0645 109.588C70.9004 109.834 70.7637 110.102 70.6543 110.391C70.5449 110.68 70.4629 110.982 70.4082 111.299C70.3574 111.611 70.3301 111.926 70.3262 112.242V113.232C70.3301 113.553 70.3613 113.871 70.4199 114.188C70.4824 114.5 70.5742 114.799 70.6953 115.084C70.8125 115.373 70.959 115.641 71.1348 115.887C71.3105 116.133 71.5156 116.346 71.75 116.525C71.9844 116.709 72.248 116.854 72.541 116.959C72.8379 117.061 73.1621 117.113 73.5137 117.117C73.8613 117.121 74.1934 117.082 74.5098 117C74.8262 116.922 75.1211 116.801 75.3945 116.637C75.5547 116.543 75.709 116.434 75.8574 116.309C76.0059 116.18 76.1465 116.037 76.2793 115.881ZM83.3164 117V108.469H82.291V112.137H78.793V108.469H77.7734V117H78.793V113.057H82.291V117H83.3164ZM89.8672 113.057V112.137H86.3047V109.395H90.4062V108.469H85.2207V117H90.459V116.08H86.3047V113.057H89.8672ZM97.9004 115.881L97.8828 112.752H95.1172V113.666H96.8516L96.8398 115.582C96.75 115.711 96.6387 115.816 96.5059 115.898C96.373 115.977 96.2305 116.039 96.0781 116.086C95.9258 116.133 95.7676 116.164 95.6035 116.18C95.4434 116.195 95.2891 116.201 95.1406 116.197C94.8828 116.193 94.6523 116.148 94.4492 116.062C94.2461 115.973 94.0684 115.854 93.916 115.705C93.7598 115.557 93.627 115.385 93.5176 115.189C93.4082 114.994 93.3184 114.787 93.248 114.568C93.1777 114.35 93.125 114.127 93.0898 113.9C93.0586 113.67 93.041 113.447 93.0371 113.232V112.23C93.0371 112.02 93.0508 111.801 93.0781 111.574C93.1055 111.348 93.1504 111.125 93.2129 110.906C93.2754 110.688 93.3555 110.48 93.4531 110.285C93.5508 110.086 93.6738 109.912 93.8223 109.764C93.9707 109.615 94.1445 109.498 94.3438 109.412C94.543 109.322 94.7715 109.277 95.0293 109.277C95.2988 109.277 95.5352 109.32 95.7383 109.406C95.9414 109.488 96.1172 109.604 96.2656 109.752C96.4102 109.9 96.5273 110.08 96.6172 110.291C96.707 110.498 96.7734 110.725 96.8164 110.971H97.8887C97.8535 110.572 97.7598 110.213 97.6074 109.893C97.4551 109.568 97.2539 109.291 97.0039 109.061C96.7539 108.834 96.4609 108.66 96.125 108.539C95.7891 108.414 95.4219 108.352 95.0234 108.352C94.6641 108.352 94.3398 108.404 94.0508 108.51C93.7617 108.615 93.5039 108.758 93.2773 108.938C93.0469 109.121 92.8496 109.338 92.6855 109.588C92.5215 109.834 92.3848 110.102 92.2754 110.391C92.166 110.68 92.084 110.982 92.0293 111.299C91.9785 111.611 91.9512 111.926 91.9473 112.242V113.232C91.9512 113.553 91.9824 113.871 92.041 114.188C92.1035 114.5 92.1953 114.799 92.3164 115.084C92.4336 115.373 92.5801 115.641 92.7559 115.887C92.9316 116.133 93.1367 116.346 93.3711 116.525C93.6055 116.709 93.8691 116.854 94.1621 116.959C94.459 117.061 94.7832 117.113 95.1348 117.117C95.4824 117.121 95.8145 117.082 96.1309 117C96.4473 116.922 96.7422 116.801 97.0156 116.637C97.1758 116.543 97.3301 116.434 97.4785 116.309C97.627 116.18 97.7676 116.037 97.9004 115.881ZM104.943 108.469H103.895L103.877 114.246C103.869 114.5 103.828 114.744 103.754 114.979C103.68 115.213 103.572 115.42 103.432 115.6C103.287 115.783 103.109 115.93 102.898 116.039C102.688 116.145 102.443 116.197 102.166 116.197C101.889 116.197 101.643 116.143 101.428 116.033C101.217 115.924 101.041 115.779 100.9 115.6C100.756 115.42 100.645 115.213 100.566 114.979C100.492 114.744 100.453 114.5 100.449 114.246L100.426 108.469H99.3945L99.3828 114.246C99.3867 114.645 99.457 115.02 99.5938 115.371C99.7305 115.719 99.9199 116.021 100.162 116.279C100.404 116.541 100.695 116.746 101.035 116.895C101.375 117.043 101.752 117.117 102.166 117.117C102.572 117.117 102.945 117.043 103.285 116.895C103.625 116.742 103.918 116.535 104.164 116.273C104.41 116.016 104.604 115.713 104.744 115.365C104.885 115.018 104.955 114.645 104.955 114.246L104.943 108.469ZM111.488 113.057V112.137H107.926V109.395H112.027V108.469H106.842V117H112.08V116.08H107.926V113.057H111.488ZM114.002 108.469V109.412H116V116.062H114.002V117H119.158V116.062H117.113V109.412H119.158V108.469H114.002ZM123.957 116.748V115.717H122.779V116.766C122.779 117.098 122.74 117.418 122.662 117.727C122.584 118.035 122.451 118.326 122.264 118.6L122.938 118.969C123.25 118.691 123.498 118.35 123.682 117.943C123.865 117.537 123.957 117.139 123.957 116.748ZM140.316 113.057V112.137H136.754V109.395H140.855V108.469H135.67V117H140.908V116.08H136.754V113.057H140.316ZM154.109 114.791L154.783 117H155.861L153.154 108.469H152.246L149.492 117H150.576L151.262 114.791H154.109ZM151.555 113.848L152.697 110.145L153.822 113.848H151.555ZM162.764 115.881L162.746 112.752H159.98V113.666H161.715L161.703 115.582C161.613 115.711 161.502 115.816 161.369 115.898C161.236 115.977 161.094 116.039 160.941 116.086C160.789 116.133 160.631 116.164 160.467 116.18C160.307 116.195 160.152 116.201 160.004 116.197C159.746 116.193 159.516 116.148 159.312 116.062C159.109 115.973 158.932 115.854 158.779 115.705C158.623 115.557 158.49 115.385 158.381 115.189C158.271 114.994 158.182 114.787 158.111 114.568C158.041 114.35 157.988 114.127 157.953 113.9C157.922 113.67 157.904 113.447 157.9 113.232V112.23C157.9 112.02 157.914 111.801 157.941 111.574C157.969 111.348 158.014 111.125 158.076 110.906C158.139 110.688 158.219 110.48 158.316 110.285C158.414 110.086 158.537 109.912 158.686 109.764C158.834 109.615 159.008 109.498 159.207 109.412C159.406 109.322 159.635 109.277 159.893 109.277C160.162 109.277 160.398 109.32 160.602 109.406C160.805 109.488 160.98 109.604 161.129 109.752C161.273 109.9 161.391 110.08 161.48 110.291C161.57 110.498 161.637 110.725 161.68 110.971H162.752C162.717 110.572 162.623 110.213 162.471 109.893C162.318 109.568 162.117 109.291 161.867 109.061C161.617 108.834 161.324 108.66 160.988 108.539C160.652 108.414 160.285 108.352 159.887 108.352C159.527 108.352 159.203 108.404 158.914 108.51C158.625 108.615 158.367 108.758 158.141 108.938C157.91 109.121 157.713 109.338 157.549 109.588C157.385 109.834 157.248 110.102 157.139 110.391C157.029 110.68 156.947 110.982 156.893 111.299C156.842 111.611 156.814 111.926 156.811 112.242V113.232C156.814 113.553 156.846 113.871 156.904 114.188C156.967 114.5 157.059 114.799 157.18 115.084C157.297 115.373 157.443 115.641 157.619 115.887C157.795 116.133 158 116.346 158.234 116.525C158.469 116.709 158.732 116.854 159.025 116.959C159.322 117.061 159.646 117.113 159.998 117.117C160.346 117.121 160.678 117.082 160.994 117C161.311 116.922 161.605 116.801 161.879 116.637C162.039 116.543 162.193 116.434 162.342 116.309C162.49 116.18 162.631 116.037 162.764 115.881ZM170 113.227V112.254C169.996 111.949 169.969 111.641 169.918 111.328C169.871 111.016 169.797 110.715 169.695 110.426C169.59 110.137 169.457 109.867 169.297 109.617C169.141 109.363 168.953 109.143 168.734 108.955C168.516 108.768 168.264 108.621 167.979 108.516C167.693 108.406 167.375 108.352 167.023 108.352C166.672 108.352 166.354 108.406 166.068 108.516C165.787 108.621 165.537 108.768 165.318 108.955C165.1 109.146 164.91 109.369 164.75 109.623C164.594 109.873 164.465 110.143 164.363 110.432C164.258 110.721 164.18 111.021 164.129 111.334C164.082 111.643 164.057 111.949 164.053 112.254V113.227C164.057 113.531 164.084 113.838 164.135 114.146C164.186 114.455 164.264 114.754 164.369 115.043C164.471 115.332 164.602 115.604 164.762 115.857C164.922 116.107 165.111 116.326 165.33 116.514C165.549 116.701 165.799 116.85 166.08 116.959C166.365 117.064 166.684 117.117 167.035 117.117C167.387 117.117 167.703 117.064 167.984 116.959C168.27 116.85 168.521 116.701 168.74 116.514C168.959 116.326 169.146 116.107 169.303 115.857C169.463 115.607 169.594 115.338 169.695 115.049C169.797 114.76 169.871 114.461 169.918 114.152C169.969 113.84 169.996 113.531 170 113.227ZM168.928 112.242V113.227C168.924 113.43 168.91 113.643 168.887 113.865C168.867 114.088 168.83 114.307 168.775 114.521C168.717 114.74 168.641 114.949 168.547 115.148C168.457 115.344 168.344 115.516 168.207 115.664C168.066 115.816 167.898 115.938 167.703 116.027C167.512 116.117 167.289 116.162 167.035 116.162C166.781 116.162 166.559 116.117 166.367 116.027C166.176 115.938 166.01 115.816 165.869 115.664C165.729 115.516 165.611 115.342 165.518 115.143C165.424 114.943 165.348 114.734 165.289 114.516C165.23 114.301 165.188 114.082 165.16 113.859C165.137 113.637 165.123 113.426 165.119 113.227V112.242C165.123 112.043 165.137 111.834 165.16 111.615C165.188 111.393 165.23 111.172 165.289 110.953C165.344 110.738 165.418 110.533 165.512 110.338C165.605 110.139 165.723 109.963 165.863 109.811C166.004 109.662 166.17 109.543 166.361 109.453C166.553 109.363 166.773 109.318 167.023 109.318C167.277 109.318 167.5 109.363 167.691 109.453C167.883 109.539 168.049 109.656 168.189 109.805C168.33 109.957 168.447 110.133 168.541 110.332C168.635 110.527 168.711 110.732 168.77 110.947C168.824 111.166 168.863 111.387 168.887 111.609C168.91 111.828 168.924 112.039 168.928 112.242ZM174.482 113.52L176.158 117H177.301L177.307 116.93L175.496 113.285C175.73 113.184 175.945 113.061 176.141 112.916C176.336 112.771 176.504 112.605 176.645 112.418C176.785 112.23 176.895 112.021 176.973 111.791C177.055 111.561 177.096 111.307 177.096 111.029C177.096 110.6 177.02 110.227 176.867 109.91C176.719 109.59 176.514 109.324 176.252 109.113C175.986 108.902 175.678 108.744 175.326 108.639C174.975 108.533 174.6 108.477 174.201 108.469H171.699V117H172.777V113.52H174.482ZM172.777 112.629V109.359H174.201C174.463 109.363 174.703 109.4 174.922 109.471C175.145 109.541 175.336 109.645 175.496 109.781C175.656 109.922 175.781 110.096 175.871 110.303C175.961 110.506 176.006 110.744 176.006 111.018C176.006 111.275 175.959 111.504 175.865 111.703C175.771 111.898 175.645 112.064 175.484 112.201C175.32 112.338 175.131 112.443 174.916 112.518C174.701 112.588 174.473 112.625 174.23 112.629H172.777ZM182.938 114.791L183.611 117H184.689L181.982 108.469H181.074L178.32 117H179.404L180.09 114.791H182.938ZM180.383 113.848L181.525 110.145L182.65 113.848H180.383ZM188.047 114.598H189.131C189.131 114.445 189.135 114.311 189.143 114.193C189.15 114.072 189.17 113.959 189.201 113.854C189.232 113.748 189.279 113.645 189.342 113.543C189.408 113.441 189.5 113.334 189.617 113.221C189.801 113.057 189.986 112.879 190.174 112.688C190.365 112.496 190.537 112.289 190.689 112.066C190.842 111.848 190.967 111.615 191.064 111.369C191.162 111.119 191.211 110.854 191.211 110.572C191.211 110.221 191.154 109.908 191.041 109.635C190.928 109.361 190.764 109.129 190.549 108.938C190.334 108.746 190.07 108.602 189.758 108.504C189.449 108.402 189.098 108.352 188.703 108.352C188.348 108.352 188.016 108.4 187.707 108.498C187.402 108.592 187.139 108.729 186.916 108.908C186.689 109.092 186.51 109.314 186.377 109.576C186.244 109.838 186.176 110.133 186.172 110.461H187.256C187.256 110.258 187.297 110.084 187.379 109.939C187.461 109.791 187.57 109.668 187.707 109.57C187.84 109.477 187.992 109.408 188.164 109.365C188.34 109.318 188.52 109.295 188.703 109.295C188.941 109.295 189.152 109.326 189.336 109.389C189.52 109.451 189.672 109.543 189.793 109.664C189.902 109.773 189.984 109.908 190.039 110.068C190.098 110.225 190.127 110.404 190.127 110.607C190.127 110.803 190.09 110.988 190.016 111.164C189.941 111.34 189.848 111.506 189.734 111.662C189.617 111.822 189.488 111.975 189.348 112.119C189.211 112.264 189.076 112.404 188.943 112.541C188.748 112.721 188.592 112.877 188.475 113.01C188.357 113.139 188.268 113.273 188.205 113.414C188.143 113.559 188.102 113.723 188.082 113.906C188.062 114.086 188.051 114.316 188.047 114.598ZM187.924 116.432C187.924 116.611 187.979 116.762 188.088 116.883C188.201 117.004 188.369 117.064 188.592 117.064C188.814 117.064 188.982 117.004 189.096 116.883C189.213 116.762 189.271 116.611 189.271 116.432C189.271 116.244 189.213 116.088 189.096 115.963C188.982 115.838 188.814 115.775 188.592 115.775C188.369 115.775 188.201 115.838 188.088 115.963C187.979 116.088 187.924 116.244 187.924 116.432Z" fill="#9306AD"/>
<path d="M206 154H56L81 224H185L206 154Z" stroke="#8CF5D5" stroke-width="2"/>
<path d="M101.082 173.541V173.799C101.082 173.951 101.109 174.092 101.164 174.221C101.219 174.346 101.293 174.453 101.387 174.543C101.48 174.637 101.594 174.709 101.727 174.76C101.859 174.811 102.006 174.836 102.166 174.836C102.326 174.836 102.473 174.811 102.605 174.76C102.738 174.709 102.852 174.637 102.945 174.543C103.039 174.453 103.111 174.346 103.162 174.221C103.217 174.092 103.246 173.951 103.25 173.799V173.541C103.246 173.385 103.217 173.242 103.162 173.113C103.111 172.984 103.039 172.875 102.945 172.785C102.848 172.691 102.732 172.619 102.6 172.568C102.467 172.518 102.32 172.492 102.16 172.492C102 172.492 101.854 172.52 101.721 172.574C101.592 172.625 101.48 172.695 101.387 172.785C101.293 172.879 101.219 172.99 101.164 173.119C101.109 173.248 101.082 173.389 101.082 173.541ZM116.973 175.902C116.973 176.18 116.914 176.42 116.797 176.623C116.68 176.822 116.525 176.986 116.334 177.115C116.146 177.248 115.932 177.346 115.689 177.408C115.447 177.471 115.201 177.502 114.951 177.502C114.65 177.502 114.369 177.463 114.107 177.385C113.85 177.303 113.621 177.182 113.422 177.021C113.219 176.861 113.053 176.666 112.924 176.436C112.799 176.201 112.719 175.932 112.684 175.627H111.975C111.99 175.99 112.07 176.318 112.215 176.611C112.359 176.904 112.557 177.156 112.807 177.367C113.084 177.613 113.41 177.801 113.785 177.93C114.164 178.055 114.553 178.117 114.951 178.117C115.287 178.117 115.619 178.072 115.947 177.982C116.275 177.889 116.568 177.748 116.826 177.561C117.084 177.377 117.293 177.146 117.453 176.869C117.617 176.592 117.699 176.266 117.699 175.891C117.699 175.516 117.619 175.189 117.459 174.912C117.303 174.631 117.1 174.393 116.85 174.197C116.588 173.998 116.299 173.832 115.982 173.699C115.67 173.562 115.359 173.447 115.051 173.354C114.824 173.283 114.586 173.203 114.336 173.113C114.086 173.02 113.859 172.904 113.656 172.768C113.449 172.631 113.279 172.465 113.146 172.27C113.014 172.07 112.947 171.828 112.947 171.543C112.947 171.277 113.004 171.047 113.117 170.852C113.234 170.656 113.387 170.492 113.574 170.359C113.758 170.23 113.967 170.135 114.201 170.072C114.436 170.006 114.672 169.973 114.91 169.973C115.195 169.973 115.455 170.018 115.689 170.107C115.928 170.197 116.133 170.324 116.305 170.488C116.48 170.652 116.621 170.85 116.727 171.08C116.832 171.307 116.9 171.559 116.932 171.836H117.641C117.629 171.461 117.549 171.121 117.4 170.816C117.252 170.508 117.053 170.246 116.803 170.031C116.557 169.816 116.27 169.65 115.941 169.533C115.617 169.412 115.273 169.352 114.91 169.352C114.586 169.352 114.264 169.4 113.943 169.498C113.623 169.592 113.336 169.73 113.082 169.914C112.828 170.102 112.621 170.334 112.461 170.611C112.305 170.885 112.227 171.199 112.227 171.555C112.23 171.941 112.316 172.268 112.484 172.533C112.652 172.799 112.869 173.027 113.135 173.219C113.377 173.395 113.648 173.545 113.949 173.67C114.25 173.795 114.543 173.902 114.828 173.992C115.066 174.066 115.312 174.152 115.566 174.25C115.82 174.348 116.053 174.467 116.264 174.607C116.471 174.752 116.641 174.93 116.773 175.141C116.91 175.348 116.977 175.602 116.973 175.902ZM124.016 173.91V173.295H120.254V170.09H124.566V169.469H119.557V178H124.59V177.385H120.254V173.91H124.016ZM129.582 174.432L131.451 178H132.184V177.924L130.232 174.268C130.479 174.166 130.705 174.043 130.912 173.898C131.119 173.754 131.297 173.588 131.445 173.4C131.594 173.209 131.709 172.996 131.791 172.762C131.877 172.527 131.92 172.266 131.92 171.977C131.92 171.578 131.848 171.227 131.703 170.922C131.562 170.613 131.369 170.352 131.123 170.137C130.873 169.926 130.582 169.764 130.25 169.65C129.918 169.537 129.564 169.477 129.189 169.469H126.781V178H127.473V174.432H129.582ZM127.473 173.834V170.072H129.189C129.475 170.076 129.74 170.121 129.986 170.207C130.236 170.293 130.451 170.416 130.631 170.576C130.814 170.74 130.957 170.939 131.059 171.174C131.164 171.408 131.217 171.674 131.217 171.971C131.217 172.244 131.168 172.494 131.07 172.721C130.977 172.943 130.846 173.137 130.678 173.301C130.506 173.465 130.305 173.594 130.074 173.688C129.848 173.777 129.602 173.826 129.336 173.834H127.473ZM136.045 178H136.695L139.432 169.469H138.688L136.496 176.5L136.367 176.939L136.238 176.506L134.053 169.469H133.314L136.045 178ZM141.131 169.469V170.102H143.205V177.373H141.131V178H146.07V177.373H143.932V170.102H146.07V169.469H141.131ZM153.646 175.41H152.955C152.908 175.707 152.832 175.984 152.727 176.242C152.625 176.5 152.49 176.723 152.322 176.91C152.15 177.102 151.941 177.252 151.695 177.361C151.453 177.471 151.168 177.523 150.84 177.52C150.562 177.52 150.316 177.475 150.102 177.385C149.887 177.291 149.697 177.164 149.533 177.004C149.369 176.844 149.23 176.66 149.117 176.453C149.008 176.242 148.918 176.02 148.848 175.785C148.777 175.551 148.725 175.312 148.689 175.07C148.658 174.824 148.643 174.586 148.643 174.355V173.107C148.643 172.877 148.658 172.641 148.689 172.398C148.725 172.152 148.777 171.912 148.848 171.678C148.918 171.443 149.01 171.223 149.123 171.016C149.236 170.805 149.375 170.621 149.539 170.465C149.699 170.309 149.887 170.186 150.102 170.096C150.32 170.002 150.566 169.953 150.84 169.949C151.168 169.949 151.453 170.006 151.695 170.119C151.938 170.229 152.145 170.379 152.316 170.57C152.488 170.766 152.625 170.992 152.727 171.25C152.832 171.508 152.908 171.783 152.955 172.076H153.646C153.604 171.686 153.51 171.324 153.365 170.992C153.225 170.656 153.035 170.367 152.797 170.125C152.562 169.883 152.281 169.693 151.953 169.557C151.625 169.416 151.254 169.348 150.84 169.352C150.5 169.355 150.193 169.41 149.92 169.516C149.646 169.617 149.404 169.758 149.193 169.938C148.979 170.117 148.793 170.328 148.637 170.57C148.48 170.812 148.352 171.072 148.25 171.35C148.148 171.631 148.072 171.922 148.021 172.223C147.971 172.523 147.943 172.822 147.939 173.119V174.355C147.943 174.652 147.971 174.951 148.021 175.252C148.072 175.549 148.148 175.838 148.25 176.119C148.352 176.396 148.479 176.656 148.631 176.898C148.787 177.141 148.975 177.352 149.193 177.531C149.404 177.711 149.646 177.854 149.92 177.959C150.193 178.064 150.5 178.117 150.84 178.117C151.246 178.121 151.611 178.055 151.936 177.918C152.264 177.777 152.547 177.584 152.785 177.338C153.023 177.1 153.215 176.814 153.359 176.482C153.504 176.15 153.6 175.793 153.646 175.41ZM151.074 178.029H150.529L150.365 178.773C150.502 178.789 150.631 178.807 150.752 178.826C150.877 178.85 150.988 178.883 151.086 178.926C151.18 178.973 151.254 179.035 151.309 179.113C151.367 179.191 151.395 179.293 151.391 179.418C151.391 179.555 151.352 179.666 151.273 179.752C151.199 179.842 151.105 179.914 150.992 179.969C150.879 180.023 150.752 180.062 150.611 180.086C150.475 180.109 150.342 180.121 150.213 180.121L150.254 180.578C150.457 180.574 150.656 180.553 150.852 180.514C151.051 180.475 151.229 180.416 151.385 180.338C151.564 180.244 151.707 180.119 151.812 179.963C151.922 179.811 151.977 179.625 151.977 179.406C151.977 179.246 151.949 179.107 151.895 178.99C151.844 178.873 151.773 178.773 151.684 178.691C151.594 178.613 151.49 178.551 151.373 178.504C151.256 178.457 151.133 178.424 151.004 178.404L151.074 178.029ZM160.877 174.303V173.172C160.873 172.883 160.848 172.588 160.801 172.287C160.754 171.982 160.682 171.688 160.584 171.402C160.482 171.121 160.355 170.855 160.203 170.605C160.051 170.355 159.869 170.137 159.658 169.949C159.443 169.766 159.199 169.621 158.926 169.516C158.652 169.406 158.348 169.352 158.012 169.352C157.672 169.352 157.365 169.406 157.092 169.516C156.818 169.621 156.576 169.766 156.365 169.949C156.154 170.141 155.973 170.361 155.82 170.611C155.668 170.857 155.543 171.123 155.445 171.408C155.344 171.689 155.268 171.982 155.217 172.287C155.17 172.588 155.145 172.883 155.141 173.172V174.303C155.145 174.592 155.172 174.887 155.223 175.188C155.273 175.488 155.35 175.781 155.451 176.066C155.549 176.348 155.674 176.613 155.826 176.863C155.982 177.113 156.166 177.33 156.377 177.514C156.588 177.701 156.83 177.85 157.104 177.959C157.377 178.064 157.684 178.117 158.023 178.117C158.359 178.117 158.664 178.064 158.938 177.959C159.211 177.85 159.453 177.701 159.664 177.514C159.875 177.33 160.057 177.115 160.209 176.869C160.361 176.619 160.486 176.352 160.584 176.066C160.682 175.785 160.754 175.494 160.801 175.193C160.848 174.889 160.873 174.592 160.877 174.303ZM160.191 173.16V174.303C160.188 174.529 160.17 174.766 160.139 175.012C160.111 175.254 160.062 175.492 159.992 175.727C159.922 175.961 159.832 176.186 159.723 176.4C159.613 176.611 159.479 176.797 159.318 176.957C159.158 177.117 158.971 177.246 158.756 177.344C158.541 177.438 158.297 177.484 158.023 177.484C157.746 177.484 157.5 177.438 157.285 177.344C157.07 177.246 156.883 177.117 156.723 176.957C156.562 176.797 156.426 176.611 156.312 176.4C156.203 176.186 156.113 175.959 156.043 175.721C155.973 175.486 155.92 175.248 155.885 175.006C155.854 174.76 155.836 174.525 155.832 174.303V173.16C155.836 172.938 155.854 172.705 155.885 172.463C155.92 172.221 155.973 171.98 156.043 171.742C156.109 171.508 156.197 171.285 156.307 171.074C156.42 170.863 156.557 170.676 156.717 170.512C156.877 170.355 157.062 170.23 157.273 170.137C157.488 170.039 157.734 169.99 158.012 169.99C158.285 169.99 158.529 170.037 158.744 170.131C158.959 170.225 159.146 170.352 159.307 170.512C159.467 170.672 159.602 170.859 159.711 171.074C159.824 171.285 159.916 171.506 159.986 171.736C160.057 171.975 160.107 172.215 160.139 172.457C160.17 172.699 160.188 172.934 160.191 173.16ZM167.422 175.902C167.422 176.18 167.363 176.42 167.246 176.623C167.129 176.822 166.975 176.986 166.783 177.115C166.596 177.248 166.381 177.346 166.139 177.408C165.896 177.471 165.65 177.502 165.4 177.502C165.1 177.502 164.818 177.463 164.557 177.385C164.299 177.303 164.07 177.182 163.871 177.021C163.668 176.861 163.502 176.666 163.373 176.436C163.248 176.201 163.168 175.932 163.133 175.627H162.424C162.439 175.99 162.52 176.318 162.664 176.611C162.809 176.904 163.006 177.156 163.256 177.367C163.533 177.613 163.859 177.801 164.234 177.93C164.613 178.055 165.002 178.117 165.4 178.117C165.736 178.117 166.068 178.072 166.396 177.982C166.725 177.889 167.018 177.748 167.275 177.561C167.533 177.377 167.742 177.146 167.902 176.869C168.066 176.592 168.148 176.266 168.148 175.891C168.148 175.516 168.068 175.189 167.908 174.912C167.752 174.631 167.549 174.393 167.299 174.197C167.037 173.998 166.748 173.832 166.432 173.699C166.119 173.562 165.809 173.447 165.5 173.354C165.273 173.283 165.035 173.203 164.785 173.113C164.535 173.02 164.309 172.904 164.105 172.768C163.898 172.631 163.729 172.465 163.596 172.27C163.463 172.07 163.396 171.828 163.396 171.543C163.396 171.277 163.453 171.047 163.566 170.852C163.684 170.656 163.836 170.492 164.023 170.359C164.207 170.23 164.416 170.135 164.65 170.072C164.885 170.006 165.121 169.973 165.359 169.973C165.645 169.973 165.904 170.018 166.139 170.107C166.377 170.197 166.582 170.324 166.754 170.488C166.93 170.652 167.07 170.85 167.176 171.08C167.281 171.307 167.35 171.559 167.381 171.836H168.09C168.078 171.461 167.998 171.121 167.85 170.816C167.701 170.508 167.502 170.246 167.252 170.031C167.006 169.816 166.719 169.65 166.391 169.533C166.066 169.412 165.723 169.352 165.359 169.352C165.035 169.352 164.713 169.4 164.393 169.498C164.072 169.592 163.785 169.73 163.531 169.914C163.277 170.102 163.07 170.334 162.91 170.611C162.754 170.885 162.676 171.199 162.676 171.555C162.68 171.941 162.766 172.268 162.934 172.533C163.102 172.799 163.318 173.027 163.584 173.219C163.826 173.395 164.098 173.545 164.398 173.67C164.699 173.795 164.992 173.902 165.277 173.992C165.516 174.066 165.762 174.152 166.016 174.25C166.27 174.348 166.502 174.467 166.713 174.607C166.92 174.752 167.09 174.93 167.223 175.141C167.359 175.348 167.426 175.602 167.422 175.902ZM101.082 189.541V189.799C101.082 189.951 101.109 190.092 101.164 190.221C101.219 190.346 101.293 190.453 101.387 190.543C101.48 190.637 101.594 190.709 101.727 190.76C101.859 190.811 102.006 190.836 102.166 190.836C102.326 190.836 102.473 190.811 102.605 190.76C102.738 190.709 102.852 190.637 102.945 190.543C103.039 190.453 103.111 190.346 103.162 190.221C103.217 190.092 103.246 189.951 103.25 189.799V189.541C103.246 189.385 103.217 189.242 103.162 189.113C103.111 188.984 103.039 188.875 102.945 188.785C102.848 188.691 102.732 188.619 102.6 188.568C102.467 188.518 102.32 188.492 102.16 188.492C102 188.492 101.854 188.52 101.721 188.574C101.592 188.625 101.48 188.695 101.387 188.785C101.293 188.879 101.219 188.99 101.164 189.119C101.109 189.248 101.082 189.389 101.082 189.541ZM117.189 190.262V188.961H113.686V186.811H117.764V185.469H112.033V194H117.781V192.67H113.686V190.262H117.189ZM121.168 185.469H119.123V194H120.635V191.475L120.564 187.643L121.566 191.188H122.381L123.5 187.484L123.43 191.475V194H124.941V185.469H122.896L121.977 188.674L121.168 185.469ZM128.105 190.871H129.377C129.842 190.871 130.262 190.805 130.637 190.672C131.012 190.539 131.332 190.354 131.598 190.115C131.859 189.881 132.061 189.602 132.201 189.277C132.346 188.953 132.418 188.6 132.418 188.217C132.418 187.807 132.346 187.434 132.201 187.098C132.061 186.762 131.859 186.473 131.598 186.23C131.332 185.992 131.012 185.807 130.637 185.674C130.262 185.537 129.842 185.469 129.377 185.469H126.459V194H128.105V190.871ZM128.105 189.535V186.805H129.377C129.611 186.805 129.814 186.842 129.986 186.916C130.158 186.99 130.303 187.092 130.42 187.221C130.533 187.35 130.617 187.5 130.672 187.672C130.73 187.844 130.76 188.029 130.76 188.229C130.76 188.4 130.73 188.566 130.672 188.727C130.617 188.883 130.533 189.021 130.42 189.143C130.303 189.264 130.158 189.359 129.986 189.43C129.814 189.5 129.611 189.535 129.377 189.535H128.105ZM136.455 190.812L138.061 194H139.824V193.924L137.99 190.402C138.225 190.297 138.436 190.172 138.623 190.027C138.814 189.883 138.979 189.713 139.115 189.518C139.248 189.326 139.35 189.109 139.42 188.867C139.494 188.621 139.531 188.346 139.531 188.041C139.531 187.619 139.457 187.248 139.309 186.928C139.164 186.607 138.957 186.34 138.688 186.125C138.414 185.91 138.086 185.748 137.703 185.639C137.32 185.525 136.893 185.469 136.42 185.469H133.561V194H135.207V190.812H136.455ZM135.207 189.477V186.805H136.42C136.646 186.805 136.848 186.832 137.023 186.887C137.199 186.941 137.348 187.02 137.469 187.121C137.605 187.234 137.707 187.379 137.773 187.555C137.844 187.727 137.879 187.926 137.879 188.152C137.879 188.34 137.852 188.51 137.797 188.662C137.746 188.814 137.67 188.945 137.568 189.055C137.447 189.191 137.289 189.297 137.094 189.371C136.902 189.441 136.68 189.477 136.426 189.477H135.207ZM146.018 190.262V188.961H142.514V186.811H146.592V185.469H140.861V194H146.609V192.67H142.514V190.262H146.018ZM153.84 193.004L153.834 189.641H150.781V190.871H152.193L152.188 192.418C152.145 192.469 152.08 192.518 151.994 192.564C151.912 192.607 151.816 192.646 151.707 192.682C151.598 192.717 151.48 192.744 151.355 192.764C151.23 192.783 151.104 192.793 150.975 192.793C150.764 192.789 150.574 192.756 150.406 192.693C150.242 192.627 150.098 192.531 149.973 192.406C149.898 192.332 149.83 192.248 149.768 192.154C149.709 192.057 149.656 191.951 149.609 191.838C149.535 191.643 149.477 191.418 149.434 191.164C149.395 190.91 149.375 190.629 149.375 190.32V189.148C149.375 188.902 149.389 188.674 149.416 188.463C149.447 188.252 149.49 188.061 149.545 187.889C149.615 187.666 149.703 187.473 149.809 187.309C149.918 187.145 150.039 187.012 150.172 186.91C150.273 186.836 150.383 186.779 150.5 186.74C150.617 186.701 150.738 186.682 150.863 186.682C151.094 186.682 151.291 186.713 151.455 186.775C151.623 186.834 151.762 186.924 151.871 187.045C151.969 187.154 152.045 187.289 152.1 187.449C152.158 187.609 152.201 187.793 152.229 188H153.834C153.791 187.59 153.699 187.221 153.559 186.893C153.422 186.564 153.23 186.285 152.984 186.055C152.738 185.828 152.436 185.654 152.076 185.533C151.721 185.412 151.303 185.352 150.822 185.352C150.51 185.352 150.213 185.395 149.932 185.48C149.65 185.566 149.391 185.693 149.152 185.861C148.949 186.01 148.762 186.186 148.59 186.389C148.422 186.592 148.273 186.82 148.145 187.074C148.008 187.359 147.902 187.678 147.828 188.029C147.754 188.377 147.717 188.754 147.717 189.16V190.32C147.717 190.746 147.754 191.141 147.828 191.504C147.906 191.867 148.02 192.193 148.168 192.482C148.297 192.744 148.453 192.977 148.637 193.18C148.824 193.383 149.031 193.555 149.258 193.695C149.488 193.832 149.74 193.936 150.014 194.006C150.291 194.08 150.586 194.117 150.898 194.117C151.258 194.117 151.594 194.084 151.906 194.018C152.219 193.951 152.502 193.863 152.756 193.754C153.006 193.648 153.223 193.529 153.406 193.396C153.59 193.264 153.734 193.133 153.84 193.004ZM161.135 190.361V189.119C161.135 188.732 161.098 188.367 161.023 188.023C160.953 187.68 160.85 187.363 160.713 187.074C160.588 186.82 160.438 186.588 160.262 186.377C160.09 186.166 159.889 185.986 159.658 185.838C159.428 185.682 159.168 185.562 158.879 185.48C158.594 185.395 158.287 185.352 157.959 185.352C157.635 185.352 157.334 185.393 157.057 185.475C156.779 185.557 156.529 185.674 156.307 185.826C156.08 185.982 155.879 186.17 155.703 186.389C155.531 186.607 155.385 186.852 155.264 187.121C155.139 187.406 155.043 187.717 154.977 188.053C154.914 188.389 154.883 188.744 154.883 189.119V190.361C154.883 190.713 154.91 191.047 154.965 191.363C155.023 191.68 155.107 191.973 155.217 192.242C155.338 192.535 155.488 192.799 155.668 193.033C155.848 193.264 156.051 193.461 156.277 193.625C156.508 193.781 156.764 193.902 157.045 193.988C157.326 194.074 157.633 194.117 157.965 194.117C158.277 194.117 158.568 194.078 158.838 194C159.111 193.926 159.361 193.82 159.588 193.684C159.838 193.527 160.061 193.332 160.256 193.098C160.451 192.863 160.615 192.605 160.748 192.324C160.873 192.043 160.969 191.738 161.035 191.41C161.102 191.078 161.135 190.729 161.135 190.361ZM159.465 189.107V190.361C159.465 190.572 159.453 190.775 159.43 190.971C159.41 191.166 159.379 191.346 159.336 191.51C159.281 191.721 159.207 191.91 159.113 192.078C159.023 192.242 158.912 192.379 158.779 192.488C158.674 192.578 158.553 192.646 158.416 192.693C158.279 192.74 158.129 192.764 157.965 192.764C157.793 192.764 157.639 192.738 157.502 192.688C157.369 192.637 157.25 192.564 157.145 192.471C157.031 192.365 156.932 192.229 156.846 192.061C156.764 191.889 156.701 191.699 156.658 191.492C156.619 191.328 156.592 191.15 156.576 190.959C156.561 190.768 156.553 190.568 156.553 190.361V189.107C156.553 188.889 156.561 188.68 156.576 188.48C156.596 188.281 156.625 188.098 156.664 187.93C156.715 187.711 156.785 187.52 156.875 187.355C156.969 187.191 157.082 187.055 157.215 186.945C157.312 186.871 157.422 186.814 157.543 186.775C157.668 186.736 157.807 186.717 157.959 186.717C158.119 186.717 158.264 186.738 158.393 186.781C158.525 186.824 158.645 186.885 158.75 186.963C158.883 187.068 158.998 187.205 159.096 187.373C159.193 187.537 159.271 187.725 159.33 187.936C159.377 188.104 159.41 188.287 159.43 188.486C159.453 188.682 159.465 188.889 159.465 189.107ZM166.818 191.773C166.818 191.926 166.787 192.066 166.725 192.195C166.662 192.32 166.572 192.428 166.455 192.518C166.338 192.607 166.193 192.678 166.021 192.729C165.854 192.779 165.66 192.805 165.441 192.805C165.195 192.805 164.969 192.777 164.762 192.723C164.559 192.668 164.385 192.582 164.24 192.465C164.092 192.348 163.977 192.197 163.895 192.014C163.812 191.83 163.768 191.609 163.76 191.352H162.143C162.143 191.793 162.227 192.178 162.395 192.506C162.566 192.834 162.799 193.119 163.092 193.361C163.4 193.607 163.762 193.795 164.176 193.924C164.594 194.049 165.016 194.111 165.441 194.111C165.875 194.111 166.275 194.061 166.643 193.959C167.01 193.854 167.326 193.699 167.592 193.496C167.857 193.297 168.064 193.053 168.213 192.764C168.365 192.471 168.441 192.137 168.441 191.762C168.441 191.328 168.342 190.945 168.143 190.613C167.943 190.281 167.676 189.99 167.34 189.74C167.117 189.588 166.873 189.453 166.607 189.336C166.342 189.219 166.062 189.119 165.77 189.037C165.496 188.963 165.25 188.883 165.031 188.797C164.816 188.711 164.633 188.615 164.48 188.51C164.328 188.408 164.211 188.293 164.129 188.164C164.051 188.035 164.012 187.891 164.012 187.73C164.012 187.578 164.041 187.438 164.1 187.309C164.162 187.176 164.252 187.061 164.369 186.963C164.486 186.869 164.629 186.797 164.797 186.746C164.969 186.691 165.164 186.664 165.383 186.664C165.621 186.664 165.828 186.697 166.004 186.764C166.184 186.826 166.334 186.914 166.455 187.027C166.572 187.145 166.66 187.283 166.719 187.443C166.781 187.604 166.816 187.779 166.824 187.971H168.43C168.43 187.588 168.355 187.236 168.207 186.916C168.059 186.596 167.852 186.318 167.586 186.084C167.32 185.854 167.002 185.674 166.631 185.545C166.264 185.416 165.857 185.352 165.412 185.352C164.982 185.352 164.584 185.408 164.217 185.521C163.85 185.631 163.531 185.789 163.262 185.996C162.992 186.203 162.781 186.453 162.629 186.746C162.477 187.039 162.4 187.365 162.4 187.725C162.4 188.037 162.457 188.326 162.57 188.592C162.688 188.857 162.859 189.1 163.086 189.318C163.312 189.537 163.604 189.738 163.959 189.922C164.318 190.105 164.734 190.262 165.207 190.391C165.512 190.473 165.766 190.562 165.969 190.66C166.176 190.754 166.344 190.857 166.473 190.971C166.598 191.088 166.686 191.213 166.736 191.346C166.791 191.479 166.818 191.621 166.818 191.773ZM101.082 205.541V205.799C101.082 205.951 101.109 206.092 101.164 206.221C101.219 206.346 101.293 206.453 101.387 206.543C101.48 206.637 101.594 206.709 101.727 206.76C101.859 206.811 102.006 206.836 102.166 206.836C102.326 206.836 102.473 206.811 102.605 206.76C102.738 206.709 102.852 206.637 102.945 206.543C103.039 206.453 103.111 206.346 103.162 206.221C103.217 206.092 103.246 205.951 103.25 205.799V205.541C103.246 205.385 103.217 205.242 103.162 205.113C103.111 204.984 103.039 204.875 102.945 204.785C102.848 204.691 102.732 204.619 102.6 204.568C102.467 204.518 102.32 204.492 102.16 204.492C102 204.492 101.854 204.52 101.721 204.574C101.592 204.625 101.48 204.695 101.387 204.785C101.293 204.879 101.219 204.99 101.164 205.119C101.109 205.248 101.082 205.389 101.082 205.541ZM113.053 201.469H112.15V210H112.836V206.221L112.789 202.553L114.535 207.434H114.992L116.885 202.465L116.838 206.221V210H117.518V201.469H116.604L114.77 206.285L113.053 201.469ZM124.016 205.91V205.295H120.254V202.09H124.566V201.469H119.557V210H124.59V209.385H120.254V205.91H124.016ZM127.467 201.469H126.564V210H127.25V206.221L127.203 202.553L128.949 207.434H129.406L131.299 202.465L131.252 206.221V210H131.932V201.469H131.018L129.184 206.285L127.467 201.469ZM138.43 205.91V205.295H134.668V202.09H138.98V201.469H133.971V210H139.004V209.385H134.668V205.91H138.43ZM145.801 207.902C145.801 208.18 145.742 208.42 145.625 208.623C145.508 208.822 145.354 208.986 145.162 209.115C144.975 209.248 144.76 209.346 144.518 209.408C144.275 209.471 144.029 209.502 143.779 209.502C143.479 209.502 143.197 209.463 142.936 209.385C142.678 209.303 142.449 209.182 142.25 209.021C142.047 208.861 141.881 208.666 141.752 208.436C141.627 208.201 141.547 207.932 141.512 207.627H140.803C140.818 207.99 140.898 208.318 141.043 208.611C141.188 208.904 141.385 209.156 141.635 209.367C141.912 209.613 142.238 209.801 142.613 209.93C142.992 210.055 143.381 210.117 143.779 210.117C144.115 210.117 144.447 210.072 144.775 209.982C145.104 209.889 145.396 209.748 145.654 209.561C145.912 209.377 146.121 209.146 146.281 208.869C146.445 208.592 146.527 208.266 146.527 207.891C146.527 207.516 146.447 207.189 146.287 206.912C146.131 206.631 145.928 206.393 145.678 206.197C145.416 205.998 145.127 205.832 144.811 205.699C144.498 205.562 144.188 205.447 143.879 205.354C143.652 205.283 143.414 205.203 143.164 205.113C142.914 205.02 142.688 204.904 142.484 204.768C142.277 204.631 142.107 204.465 141.975 204.27C141.842 204.07 141.775 203.828 141.775 203.543C141.775 203.277 141.832 203.047 141.945 202.852C142.062 202.656 142.215 202.492 142.402 202.359C142.586 202.23 142.795 202.135 143.029 202.072C143.264 202.006 143.5 201.973 143.738 201.973C144.023 201.973 144.283 202.018 144.518 202.107C144.756 202.197 144.961 202.324 145.133 202.488C145.309 202.652 145.449 202.85 145.555 203.08C145.66 203.307 145.729 203.559 145.76 203.836H146.469C146.457 203.461 146.377 203.121 146.229 202.816C146.08 202.508 145.881 202.246 145.631 202.031C145.385 201.816 145.098 201.65 144.77 201.533C144.445 201.412 144.102 201.352 143.738 201.352C143.414 201.352 143.092 201.4 142.771 201.498C142.451 201.592 142.164 201.73 141.91 201.914C141.656 202.102 141.449 202.334 141.289 202.611C141.133 202.885 141.055 203.199 141.055 203.555C141.059 203.941 141.145 204.268 141.312 204.533C141.48 204.799 141.697 205.027 141.963 205.219C142.205 205.395 142.477 205.545 142.777 205.67C143.078 205.795 143.371 205.902 143.656 205.992C143.895 206.066 144.141 206.152 144.395 206.25C144.648 206.348 144.881 206.467 145.092 206.607C145.299 206.752 145.469 206.93 145.602 207.141C145.738 207.348 145.805 207.602 145.801 207.902ZM159.711 207.621L160.467 210H161.17L158.416 201.469H157.783L155.012 210H155.715L156.471 207.621H159.711ZM156.67 206.994L158.1 202.523L159.518 206.994H156.67ZM167.896 201.469H167.223L167.211 207.252C167.203 207.541 167.154 207.822 167.064 208.096C166.979 208.365 166.852 208.604 166.684 208.811C166.516 209.021 166.309 209.189 166.062 209.314C165.82 209.439 165.541 209.502 165.225 209.502C164.908 209.502 164.627 209.439 164.381 209.314C164.135 209.189 163.928 209.021 163.76 208.811C163.592 208.604 163.463 208.365 163.373 208.096C163.283 207.826 163.236 207.545 163.232 207.252L163.215 201.469H162.553L162.547 207.252C162.551 207.639 162.615 208.006 162.74 208.354C162.869 208.701 163.049 209.004 163.279 209.262C163.51 209.527 163.789 209.736 164.117 209.889C164.445 210.041 164.814 210.117 165.225 210.117C165.631 210.117 165.996 210.041 166.32 209.889C166.648 209.732 166.93 209.523 167.164 209.262C167.398 209 167.58 208.697 167.709 208.354C167.838 208.006 167.902 207.639 167.902 207.252L167.896 201.469Z" fill="#9306AD"/>
</svg>
