<svg width="39" height="25" viewBox="0 0 39 25" fill="none" xmlns="http://www.w3.org/2000/svg">
<path d="M0.3125 1.25H8.79688C10.5365 1.25 12.0312 1.51042 13.2812 2.03125C14.5417 2.55208 15.5104 3.32292 16.1875 4.34375C16.8646 5.36458 17.2031 6.61979 17.2031 8.10938C17.2031 9.32812 16.9948 10.375 16.5781 11.25C16.1719 12.1146 15.5938 12.8385 14.8438 13.4219C14.1042 13.9948 13.2344 14.4531 12.2344 14.7969L10.75 15.5781H3.375L3.34375 11.9219H8.82812C9.65104 11.9219 10.3333 11.776 10.875 11.4844C11.4167 11.1927 11.8229 10.7865 12.0938 10.2656C12.375 9.74479 12.5156 9.14062 12.5156 8.45312C12.5156 7.72396 12.3802 7.09375 12.1094 6.5625C11.8385 6.03125 11.4271 5.625 10.875 5.34375C10.3229 5.0625 9.63021 4.92188 8.79688 4.92188H5V24H0.3125V1.25ZM13.0312 24L7.84375 13.8594L12.7969 13.8281L18.0469 23.7812V24H13.0312ZM34 16.4531H38.6719C38.5781 17.9844 38.1562 19.3438 37.4062 20.5312C36.6667 21.7188 35.6302 22.6458 34.2969 23.3125C32.974 23.9792 31.3802 24.3125 29.5156 24.3125C28.0573 24.3125 26.75 24.0625 25.5938 23.5625C24.4375 23.0521 23.4479 22.3229 22.625 21.375C21.8125 20.4271 21.1927 19.2812 20.7656 17.9375C20.3385 16.5938 20.125 15.0885 20.125 13.4219V11.8438C20.125 10.1771 20.3438 8.67188 20.7812 7.32812C21.2292 5.97396 21.8646 4.82292 22.6875 3.875C23.5208 2.92708 24.5156 2.19792 25.6719 1.6875C26.8281 1.17708 28.1198 0.921875 29.5469 0.921875C31.4427 0.921875 33.0417 1.26562 34.3438 1.95312C35.6562 2.64062 36.6719 3.58854 37.3906 4.79688C38.1198 6.00521 38.5573 7.38021 38.7031 8.92188H34.0156C33.9635 8.00521 33.7812 7.22917 33.4688 6.59375C33.1562 5.94792 32.6823 5.46354 32.0469 5.14062C31.4219 4.80729 30.5885 4.64062 29.5469 4.64062C28.7656 4.64062 28.0833 4.78646 27.5 5.07812C26.9167 5.36979 26.4271 5.8125 26.0312 6.40625C25.6354 7 25.3385 7.75 25.1406 8.65625C24.9531 9.55208 24.8594 10.6042 24.8594 11.8125V13.4219C24.8594 14.599 24.9479 15.6354 25.125 16.5312C25.3021 17.4167 25.5729 18.1667 25.9375 18.7812C26.3125 19.3854 26.7917 19.8438 27.375 20.1562C27.9688 20.4583 28.6823 20.6094 29.5156 20.6094C30.4948 20.6094 31.3021 20.4531 31.9375 20.1406C32.5729 19.8281 33.0573 19.3646 33.3906 18.75C33.7344 18.1354 33.9375 17.3698 34 16.4531Z" fill="#FFF4EA"/>
</svg>
